  0
SECTION
  2
HEADER
  9
$ACADVER
  1
AC1024
  9
$ACADMAINTVER
 70
6
  9
$DWGCODEPAGE
  3
ANSI_1252
  9
$LASTSAVEDBY
  1
ezdxf
  9
$INSBASE
 10
0.0
 20
0.0
 30
0.0
  9
$EXTMIN
 10
1e+20
 20
1e+20
 30
1e+20
  9
$EXTMAX
 10
-1e+20
 20
-1e+20
 30
-1e+20
  9
$LIMMIN
 10
0.0
 20
0.0
  9
$LIMMAX
 10
420.0
 20
297.0
  9
$ORTHOMODE
 70
0
  9
$REGENMODE
 70
1
  9
$FILLMODE
 70
1
  9
$QTEXTMODE
 70
0
  9
$MIRRTEXT
 70
1
  9
$LTSCALE
 40
2.0
  9
$ATTMODE
 70
1
  9
$TEXTSIZE
 40
2.5
  9
$TRACEWID
 40
1.0
  9
$TEXTSTYLE
  7
OpenSans
  9
$CLAYER
  8
0
  9
$CELTYPE
  6
ByLayer
  9
$CECOLOR
 62
256
  9
$CELTSCALE
 40
1.0
  9
$DISPSILH
 70
0
  9
$DIMSCALE
 40
1.0
  9
$DIMASZ
 40
0.175
  9
$DIMEXO
 40
0.125
  9
$DIMDLI
 40
3.75
  9
$DIMRND
 40
0.0
  9
$DIMDLE
 40
0.0
  9
$DIMEXE
 40
0.375
  9
$DIMTP
 40
0.0
  9
$DIMTM
 40
0.0
  9
$DIMTXT
 40
0.25
  9
$DIMCEN
 40
2.5
  9
$DIMTSZ
 40
0.0
  9
$DIMTOL
 70
0
  9
$DIMLIM
 70
0
  9
$DIMTIH
 70
0
  9
$DIMTOH
 70
0
  9
$DIMSE1
 70
0
  9
$DIMSE2
 70
0
  9
$DIMTAD
 70
1
  9
$DIMZIN
 70
12
  9
$DIMBLK
  1
ARCHTICK
  9
$DIMASO
 70
1
  9
$DIMSHO
 70
1
  9
$DIMPOST
  1

  9
$DIMAPOST
  1

  9
$DIMALT
 70
0
  9
$DIMALTD
 70
3
  9
$DIMALTF
 40
0.03937007874
  9
$DIMLFAC
 40
100.0
  9
$DIMTOFL
 70
1
  9
$DIMTVP
 40
0.0
  9
$DIMTIX
 70
0
  9
$DIMSOXD
 70
0
  9
$DIMSAH
 70
0
  9
$DIMBLK1
  1

  9
$DIMBLK2
  1

  9
$DIMSTYLE
  2
EZDXF
  9
$DIMCLRD
 70
0
  9
$DIMCLRE
 70
0
  9
$DIMCLRT
 70
0
  9
$DIMTFAC
 40
0.5
  9
$DIMGAP
 40
0.1
  9
$DIMJUST
 70
0
  9
$DIMSD1
 70
0
  9
$DIMSD2
 70
0
  9
$DIMTOLJ
 70
0
  9
$DIMTZIN
 70
8
  9
$DIMALTZ
 70
0
  9
$DIMALTTZ
 70
0
  9
$DIMUPT
 70
1
  9
$DIMDEC
 70
2
  9
$DIMTDEC
 70
2
  9
$DIMALTU
 70
2
  9
$DIMALTTD
 70
3
  9
$DIMTXSTY
  7
OpenSansCondensed-Light
  9
$DIMAUNIT
 70
0
  9
$DIMADEC
 70
2
  9
$DIMALTRND
 40
0.0
  9
$DIMAZIN
 70
3
  9
$DIMDSEP
 70
46
  9
$DIMATFIT
 70
3
  9
$DIMFRAC
 70
0
  9
$DIMLDRBLK
  1

  9
$DIMLUNIT
 70
2
  9
$DIMLWD
 70
-2
  9
$DIMLWE
 70
-2
  9
$DIMTMOVE
 70
2
  9
$DIMFXL
 40
1.0
  9
$DIMFXLON
 70
0
  9
$DIMJOGANG
 40
0.785398163397
  9
$DIMTFILL
 70
0
  9
$DIMTFILLCLR
 70
0
  9
$DIMARCSYM
 70
0
  9
$DIMLTYPE
  6

  9
$DIMLTEX1
  6

  9
$DIMLTEX2
  6

  9
$DIMTXTDIRECTION
 70
0
  9
$LUNITS
 70
2
  9
$LUPREC
 70
4
  9
$SKETCHINC
 40
1.0
  9
$FILLETRAD
 40
10.0
  9
$AUNITS
 70
0
  9
$AUPREC
 70
2
  9
$MENU
  1
.
  9
$ELEVATION
 40
0.0
  9
$PELEVATION
 40
0.0
  9
$THICKNESS
 40
0.0
  9
$LIMCHECK
 70
0
  9
$CHAMFERA
 40
0.0
  9
$CHAMFERB
 40
0.0
  9
$CHAMFERC
 40
0.0
  9
$CHAMFERD
 40
0.0
  9
$SKPOLY
 70
0
  9
$TDCREATE
 40
2461261.498425926
  9
$TDUCREATE
 40
2458532.153996898
  9
$TDUPDATE
 40
2461261.498425926
  9
$TDUUPDATE
 40
2458532.1544311
  9
$TDINDWG
 40
0.0
  9
$TDUSRTIMER
 40
0.0
  9
$USRTIMER
 70
1
  9
$ANGBASE
 50
0.0
  9
$ANGDIR
 70
0
  9
$PDMODE
 70
0
  9
$PDSIZE
 40
0.0
  9
$PLINEWID
 40
0.0
  9
$SPLFRAME
 70
0
  9
$SPLINETYPE
 70
6
  9
$SPLINESEGS
 70
8
  9
$HANDSEED
  5
141
  9
$SURFTAB1
 70
6
  9
$SURFTAB2
 70
6
  9
$SURFTYPE
 70
6
  9
$SURFU
 70
6
  9
$SURFV
 70
6
  9
$UCSBASE
  2

  9
$UCSNAME
  2

  9
$UCSORG
 10
0.0
 20
0.0
 30
0.0
  9
$UCSXDIR
 10
1.0
 20
0.0
 30
0.0
  9
$UCSYDIR
 10
0.0
 20
1.0
 30
0.0
  9
$UCSORTHOREF
  2

  9
$UCSORTHOVIEW
 70
0
  9
$UCSORGTOP
 10
0.0
 20
0.0
 30
0.0
  9
$UCSORGBOTTOM
 10
0.0
 20
0.0
 30
0.0
  9
$UCSORGLEFT
 10
0.0
 20
0.0
 30
0.0
  9
$UCSORGRIGHT
 10
0.0
 20
0.0
 30
0.0
  9
$UCSORGFRONT
 10
0.0
 20
0.0
 30
0.0
  9
$UCSORGBACK
 10
0.0
 20
0.0
 30
0.0
  9
$PUCSBASE
  2

  9
$PUCSNAME
  2

  9
$PUCSORG
 10
0.0
 20
0.0
 30
0.0
  9
$PUCSXDIR
 10
1.0
 20
0.0
 30
0.0
  9
$PUCSYDIR
 10
0.0
 20
1.0
 30
0.0
  9
$PUCSORTHOREF
  2

  9
$PUCSORTHOVIEW
 70
0
  9
$PUCSORGTOP
 10
0.0
 20
0.0
 30
0.0
  9
$PUCSORGBOTTOM
 10
0.0
 20
0.0
 30
0.0
  9
$PUCSORGLEFT
 10
0.0
 20
0.0
 30
0.0
  9
$PUCSORGRIGHT
 10
0.0
 20
0.0
 30
0.0
  9
$PUCSORGFRONT
 10
0.0
 20
0.0
 30
0.0
  9
$PUCSORGBACK
 10
0.0
 20
0.0
 30
0.0
  9
$USERI1
 70
0
  9
$USERI2
 70
0
  9
$USERI3
 70
0
  9
$USERI4
 70
0
  9
$USERI5
 70
0
  9
$USERR1
 40
0.0
  9
$USERR2
 40
0.0
  9
$USERR3
 40
0.0
  9
$USERR4
 40
0.0
  9
$USERR5
 40
0.0
  9
$WORLDVIEW
 70
1
  9
$SHADEDGE
 70
3
  9
$SHADEDIF
 70
70
  9
$TILEMODE
 70
1
  9
$MAXACTVP
 70
64
  9
$PINSBASE
 10
0.0
 20
0.0
 30
0.0
  9
$PLIMCHECK
 70
0
  9
$PEXTMIN
 10
1e+20
 20
1e+20
 30
1e+20
  9
$PEXTMAX
 10
-1e+20
 20
-1e+20
 30
-1e+20
  9
$PLIMMIN
 10
-0.0
 20
-0.0
  9
$PLIMMAX
 10
594.0
 20
420.0
  9
$UNITMODE
 70
0
  9
$VISRETAIN
 70
1
  9
$PLINEGEN
 70
0
  9
$PSLTSCALE
 70
1
  9
$TREEDEPTH
 70
3020
  9
$CMLSTYLE
  2
Standard
  9
$CMLJUST
 70
0
  9
$CMLSCALE
 40
20.0
  9
$PROXYGRAPHICS
 70
1
  9
$MEASUREMENT
 70
1
  9
$CELWEIGHT
370
-1
  9
$ENDCAPS
280
0
  9
$JOINSTYLE
280
0
  9
$LWDISPLAY
290
0
  9
$INSUNITS
 70
6
  9
$HYPERLINKBASE
  1

  9
$STYLESHEET
  1

  9
$XEDIT
290
1
  9
$CEPSNTYPE
380
0
  9
$PSTYLEMODE
290
1
  9
$FINGERPRINTGUID
  2
{93583772-9193-4C82-B2F7-C8B7C5764C35}
  9
$VERSIONGUID
  2
{38F7A204-94B3-4FAC-9620-CDC964D8D3F8}
  9
$EXTNAMES
290
1
  9
$PSVPSCALE
 40
0.0
  9
$OLESTARTUP
290
0
  9
$SORTENTS
280
127
  9
$INDEXCTL
280
0
  9
$HIDETEXT
280
1
  9
$XCLIPFRAME
280
1
  9
$HALOGAP
280
0
  9
$OBSCOLOR
 70
257
  9
$OBSLTYPE
280
0
  9
$INTERSECTIONDISPLAY
280
0
  9
$INTERSECTIONCOLOR
 70
257
  9
$DIMASSOC
280
2
  9
$PROJECTNAME
  1

  9
$CAMERADISPLAY
290
0
  9
$LENSLENGTH
 40
50.0
  9
$CAMERAHEIGHT
 40
0.0
  9
$STEPSPERSEC
 40
24.0
  9
$STEPSIZE
 40
100.0
  9
$3DDWFPREC
 40
2.0
  9
$PSOLWIDTH
 40
0.005
  9
$PSOLHEIGHT
 40
0.08
  9
$LOFTANG1
 40
1.570796326795
  9
$LOFTANG2
 40
1.570796326795
  9
$LOFTMAG1
 40
0.0
  9
$LOFTMAG2
 40
0.0
  9
$LOFTPARAM
 70
7
  9
$LOFTNORMALS
280
1
  9
$LATITUDE
 40
37.795
  9
$LONGITUDE
 40
-122.394
  9
$NORTHDIRECTION
 40
0.0
  9
$TIMEZONE
 70
-8000
  9
$LIGHTGLYPHDISPLAY
280
1
  9
$TILEMODELIGHTSYNCH
280
1
  9
$CMATERIAL
347
20
  9
$SOLIDHIST
280
0
  9
$SHOWHIST
280
1
  9
$DWFFRAME
280
2
  9
$DGNFRAME
280
2
  9
$REALWORLDSCALE
290
1
  9
$INTERFERECOLOR
 62
256
  9
$CSHADOW
280
0
  9
$SHADOWPLANELOCATION
 40
0.0
  0
ENDSEC
  0
SECTION
  2
CLASSES
  0
CLASS
  1
ACDBDICTIONARYWDFLT
  2
AcDbDictionaryWithDefault
  3
ObjectDBX Classes
 90
0
 91
0
280
0
281
0
  0
CLASS
  1
SUN
  2
AcDbSun
  3
SCENEOE
 90
1153
 91
0
280
0
281
0
  0
CLASS
  1
VISUALSTYLE
  2
AcDbVisualStyle
  3
ObjectDBX Classes
 90
4095
 91
0
280
0
281
0
  0
CLASS
  1
MATERIAL
  2
AcDbMaterial
  3
ObjectDBX Classes
 90
1153
 91
0
280
0
281
0
  0
CLASS
  1
SCALE
  2
AcDbScale
  3
ObjectDBX Classes
 90
1153
 91
0
280
0
281
0
  0
CLASS
  1
TABLESTYLE
  2
AcDbTableStyle
  3
ObjectDBX Classes
 90
4095
 91
0
280
0
281
0
  0
CLASS
  1
MLEADERSTYLE
  2
AcDbMLeaderStyle
  3
ACDB_MLEADERSTYLE_CLASS
 90
4095
 91
0
280
0
281
0
  0
CLASS
  1
DICTIONARYVAR
  2
AcDbDictionaryVar
  3
ObjectDBX Classes
 90
0
 91
0
280
0
281
0
  0
CLASS
  1
CELLSTYLEMAP
  2
AcDbCellStyleMap
  3
ObjectDBX Classes
 90
1152
 91
0
280
0
281
0
  0
CLASS
  1
MENTALRAYRENDERSETTINGS
  2
AcDbMentalRayRenderSettings
  3
SCENEOE
 90
1024
 91
0
280
0
281
0
  0
CLASS
  1
ACDBDETAILVIEWSTYLE
  2
AcDbDetailViewStyle
  3
ObjectDBX Classes
 90
1025
 91
0
280
0
281
0
  0
CLASS
  1
ACDBSECTIONVIEWSTYLE
  2
AcDbSectionViewStyle
  3
ObjectDBX Classes
 90
1025
 91
0
280
0
281
0
  0
CLASS
  1
RASTERVARIABLES
  2
AcDbRasterVariables
  3
ISM
 90
0
 91
0
280
0
281
0
  0
CLASS
  1
ACDBPLACEHOLDER
  2
AcDbPlaceHolder
  3
ObjectDBX Classes
 90
0
 91
0
280
0
281
0
  0
CLASS
  1
LAYOUT
  2
AcDbLayout
  3
ObjectDBX Classes
 90
0
 91
0
280
0
281
0
  0
ENDSEC
  0
SECTION
  2
TABLES
  0
TABLE
  2
VPORT
  5
8
330
0
100
AcDbSymbolTable
 70
1
  0
VPORT
  5
23
330
8
100
AcDbSymbolTableRecord
100
AcDbViewportTableRecord
  2
*Active
 70
0
 10
0.0
 20
0.0
 11
1.0
 21
1.0
 12
0.0
 22
0.0
 13
0.0
 23
0.0
 14
0.5
 24
0.5
 15
0.5
 25
0.5
 16
0.0
 26
0.0
 36
1.0
 17
0.0
 27
0.0
 37
0.0
 40
1000.0
 41
1.34
 42
50.0
 43
0.0
 44
0.0
 50
0.0
 51
0.0
 71
0
 72
1000
 73
1
 74
3
 75
0
 76
0
 77
0
 78
0
281
0
 65
0
146
0.0
  0
ENDTAB
  0
TABLE
  2
LTYPE
  5
2
330
0
100
AcDbSymbolTable
 70
21
  0
LTYPE
  5
24
330
2
100
AcDbSymbolTableRecord
100
AcDbLinetypeTableRecord
  2
ByBlock
 70
0
  3

 72
65
 73
0
 40
0.0
  0
LTYPE
  5
25
330
2
100
AcDbSymbolTableRecord
100
AcDbLinetypeTableRecord
  2
ByLayer
 70
0
  3

 72
65
 73
0
 40
0.0
  0
LTYPE
  5
26
330
2
100
AcDbSymbolTableRecord
100
AcDbLinetypeTableRecord
  2
Continuous
 70
0
  3

 72
65
 73
0
 40
0.0
  0
LTYPE
  5
2F
330
2
100
AcDbSymbolTableRecord
100
AcDbLinetypeTableRecord
  2
CENTER
 70
0
  3
Center ____ _ ____ _ ____ _ ____ _ ____ _ ____
 72
65
 73
4
 40
5.08
 49
3.175
 74
0
 49
-0.635
 74
0
 49
0.635
 74
0
 49
-0.635
 74
0
  0
LTYPE
  5
30
330
2
100
AcDbSymbolTableRecord
100
AcDbLinetypeTableRecord
  2
CENTERX2
 70
0
  3
Center (2x) ________  __  ________  __  ________
 72
65
 73
4
 40
8.89
 49
6.35
 74
0
 49
-0.635
 74
0
 49
1.27
 74
0
 49
-0.635
 74
0
  0
LTYPE
  5
31
330
2
100
AcDbSymbolTableRecord
100
AcDbLinetypeTableRecord
  2
CENTER2
 70
0
  3
Center (.5x) ____ _ ____ _ ____ _ ____ _ ____
 72
65
 73
4
 40
2.54
 49
1.587
 74
0
 49
-0.318
 74
0
 49
0.318
 74
0
 49
-0.318
 74
0
  0
LTYPE
  5
32
330
2
100
AcDbSymbolTableRecord
100
AcDbLinetypeTableRecord
  2
DASHED
 70
0
  3
Dashed __ __ __ __ __ __ __ __ __ __ __ __ __ _
 72
65
 73
2
 40
1.524
 49
1.27
 74
0
 49
-0.254
 74
0
  0
LTYPE
  5
33
330
2
100
AcDbSymbolTableRecord
100
AcDbLinetypeTableRecord
  2
DASHEDX2
 70
0
  3
Dashed (2x) ____  ____  ____  ____  ____  ____
 72
65
 73
2
 40
3.048
 49
2.54
 74
0
 49
-0.508
 74
0
  0
LTYPE
  5
34
330
2
100
AcDbSymbolTableRecord
100
AcDbLinetypeTableRecord
  2
DASHED2
 70
0
  3
Dashed (.5x) _ _ _ _ _ _ _ _ _ _ _ _ _ _
 72
65
 73
2
 40
0.762
 49
0.635
 74
0
 49
-0.127
 74
0
  0
LTYPE
  5
35
330
2
100
AcDbSymbolTableRecord
100
AcDbLinetypeTableRecord
  2
PHANTOM
 70
0
  3
Phantom ______  __  __  ______  __  __  ______
 72
65
 73
6
 40
6.35
 49
3.175
 74
0
 49
-0.635
 74
0
 49
0.635
 74
0
 49
-0.635
 74
0
 49
0.635
 74
0
 49
-0.635
 74
0
  0
LTYPE
  5
36
330
2
100
AcDbSymbolTableRecord
100
AcDbLinetypeTableRecord
  2
PHANTOMX2
 70
0
  3
Phantom (2x)____________    ____    ____    ____________
 72
65
 73
6
 40
10.795
 49
6.35
 74
0
 49
-0.635
 74
0
 49
1.27
 74
0
 49
-0.635
 74
0
 49
1.27
 74
0
 49
-0.635
 74
0
  0
LTYPE
  5
37
330
2
100
AcDbSymbolTableRecord
100
AcDbLinetypeTableRecord
  2
PHANTOM2
 70
0
  3
Phantom (.5x) ___ _ _ ___ _ _ ___ _ _ ___ _ _ ___
 72
65
 73
6
 40
3.175
 49
1.587
 74
0
 49
-0.318
 74
0
 49
0.318
 74
0
 49
-0.318
 74
0
 49
0.318
 74
0
 49
-0.318
 74
0
  0
LTYPE
  5
38
330
2
100
AcDbSymbolTableRecord
100
AcDbLinetypeTableRecord
  2
DASHDOT
 70
0
  3
Dash dot __ . __ . __ . __ . __ . __ . __ . __
 72
65
 73
4
 40
3.556
 49
2.54
 74
0
 49
-0.508
 74
0
 49
0.0
 74
0
 49
-0.508
 74
0
  0
LTYPE
  5
39
330
2
100
AcDbSymbolTableRecord
100
AcDbLinetypeTableRecord
  2
DASHDOTX2
 70
0
  3
Dash dot (2x) ____  .  ____  .  ____  .  ____
 72
65
 73
4
 40
6.096
 49
5.08
 74
0
 49
-0.508
 74
0
 49
0.0
 74
0
 49
-0.508
 74
0
  0
LTYPE
  5
3A
330
2
100
AcDbSymbolTableRecord
100
AcDbLinetypeTableRecord
  2
DASHDOT2
 70
0
  3
Dash dot (.5x) _ . _ . _ . _ . _ . _ . _ . _
 72
65
 73
4
 40
1.778
 49
1.27
 74
0
 49
-0.254
 74
0
 49
0.0
 74
0
 49
-0.254
 74
0
  0
LTYPE
  5
3B
330
2
100
AcDbSymbolTableRecord
100
AcDbLinetypeTableRecord
  2
DOT
 70
0
  3
Dot .  .  .  .  .  .  .  .  .  .  .  .  .  .  .  .
 72
65
 73
2
 40
0.508
 49
0.0
 74
0
 49
-0.508
 74
0
  0
LTYPE
  5
3C
330
2
100
AcDbSymbolTableRecord
100
AcDbLinetypeTableRecord
  2
DOTX2
 70
0
  3
Dot (2x) .    .    .    .    .    .    .    . 
 72
65
 73
2
 40
1.016
 49
0.0
 74
0
 49
-1.016
 74
0
  0
LTYPE
  5
3D
330
2
100
AcDbSymbolTableRecord
100
AcDbLinetypeTableRecord
  2
DOT2
 70
0
  3
Dot (.5) . . . . . . . . . . . . . . . . . . . 
 72
65
 73
2
 40
0.254
 49
0.0
 74
0
 49
-0.254
 74
0
  0
LTYPE
  5
3E
330
2
100
AcDbSymbolTableRecord
100
AcDbLinetypeTableRecord
  2
DIVIDE
 70
0
  3
Divide __ . . __ . . __ . . __ . . __ . . __
 72
65
 73
6
 40
4.064
 49
2.54
 74
0
 49
-0.508
 74
0
 49
0.0
 74
0
 49
-0.508
 74
0
 49
0.0
 74
0
 49
-0.508
 74
0
  0
LTYPE
  5
3F
330
2
100
AcDbSymbolTableRecord
100
AcDbLinetypeTableRecord
  2
DIVIDEX2
 70
0
  3
Divide (2x) ____  . .  ____  . .  ____  . .  ____
 72
65
 73
6
 40
6.604
 49
5.08
 74
0
 49
-0.508
 74
0
 49
0.0
 74
0
 49
-0.508
 74
0
 49
0.0
 74
0
 49
-0.508
 74
0
  0
LTYPE
  5
40
330
2
100
AcDbSymbolTableRecord
100
AcDbLinetypeTableRecord
  2
DIVIDE2
 70
0
  3
Divide(.5x) _ . _ . _ . _ . _ . _ . _ . _
 72
65
 73
6
 40
2.032
 49
1.27
 74
0
 49
-0.254
 74
0
 49
0.0
 74
0
 49
-0.254
 74
0
 49
0.0
 74
0
 49
-0.254
 74
0
  0
ENDTAB
  0
TABLE
  2
LAYER
  5
1
330
0
100
AcDbSymbolTable
 70
15
  0
LAYER
  5
27
330
1
100
AcDbSymbolTableRecord
100
AcDbLayerTableRecord
  2
0
 70
0
 62
7
  6
Continuous
370
-3
390
13
347
21
  0
LAYER
  5
28
330
1
100
AcDbSymbolTableRecord
100
AcDbLayerTableRecord
  2
Defpoints
 70
0
 62
7
  6
Continuous
290
0
370
-3
390
13
347
21
  0
LAYER
  5
8A
330
1
100
AcDbSymbolTableRecord
100
AcDbLayerTableRecord
  2
A-BLDG-OTLN
 70
0
 62
7
  6
Continuous
370
50
390
13
347
21
  0
LAYER
  5
8B
330
1
100
AcDbSymbolTableRecord
100
AcDbLayerTableRecord
  2
A-BLDG-HTCH
 70
0
 62
8
  6
Continuous
370
13
390
13
347
21
  0
LAYER
  5
8C
330
1
100
AcDbSymbolTableRecord
100
AcDbLayerTableRecord
  2
C-SITE-SBCK
 70
0
 62
4
  6
Continuous
370
25
390
13
347
21
  0
LAYER
  5
8D
330
1
100
AcDbSymbolTableRecord
100
AcDbLayerTableRecord
  2
C-SITE-STDF-ASSM
 70
0
 62
2
  6
Continuous
370
25
390
13
347
21
  0
LAYER
  5
8E
330
1
100
AcDbSymbolTableRecord
100
AcDbLayerTableRecord
  2
C-SITE-STDF-UNKN
 70
0
 62
30
  6
Continuous
370
25
390
13
347
21
  0
LAYER
  5
8F
330
1
100
AcDbSymbolTableRecord
100
AcDbLayerTableRecord
  2
C-ROAD-CNTR
 70
0
 62
6
  6
Continuous
370
35
390
13
347
21
  0
LAYER
  5
90
330
1
100
AcDbSymbolTableRecord
100
AcDbLayerTableRecord
  2
A-ANNO-DIMS
 70
0
 62
1
  6
Continuous
370
13
390
13
347
21
  0
LAYER
  5
91
330
1
100
AcDbSymbolTableRecord
100
AcDbLayerTableRecord
  2
A-ANNO-TEXT
 70
0
 62
3
  6
Continuous
370
18
390
13
347
21
  0
LAYER
  5
92
330
1
100
AcDbSymbolTableRecord
100
AcDbLayerTableRecord
  2
A-ANNO-TTLB
 70
0
 62
7
  6
Continuous
370
35
390
13
347
21
  0
LAYER
  5
93
330
1
100
AcDbSymbolTableRecord
100
AcDbLayerTableRecord
  2
A-ANNO-LEGN
 70
0
 62
7
  6
Continuous
370
18
390
13
347
21
  0
LAYER
  5
94
330
1
100
AcDbSymbolTableRecord
100
AcDbLayerTableRecord
  2
A-ANNO-NORT
 70
0
 62
7
  6
Continuous
370
25
390
13
347
21
  0
LAYER
  5
95
330
1
100
AcDbSymbolTableRecord
100
AcDbLayerTableRecord
  2
G-ANNO-SCLE
 70
0
 62
7
  6
Continuous
370
25
390
13
347
21
  0
LAYER
  5
96
330
1
100
AcDbSymbolTableRecord
100
AcDbLayerTableRecord
  2
G-ANNO-NPLT
 70
0
 62
8
  6
Continuous
370
13
390
13
347
21
  0
ENDTAB
  0
TABLE
  2
STYLE
  5
5
330
0
100
AcDbSymbolTable
 70
27
  0
STYLE
  5
29
330
5
100
AcDbSymbolTableRecord
100
AcDbTextStyleTableRecord
  2
Standard
 70
0
 40
0.0
 41
1.0
 50
0.0
 71
0
 42
2.5
  3
txt
  4

  0
STYLE
  5
41
330
5
100
AcDbSymbolTableRecord
100
AcDbTextStyleTableRecord
  2
OpenSans-Light
 70
0
 40
0.0
 41
1.0
 50
0.0
 71
0
 42
2.5
  3
OpenSans-Light.ttf
  4

  0
STYLE
  5
42
330
5
100
AcDbSymbolTableRecord
100
AcDbTextStyleTableRecord
  2
OpenSans-Light-Italic
 70
0
 40
0.0
 41
1.0
 50
0.0
 71
0
 42
2.5
  3
OpenSans-LightItalic.ttf
  4

  0
STYLE
  5
43
330
5
100
AcDbSymbolTableRecord
100
AcDbTextStyleTableRecord
  2
OpenSans
 70
0
 40
0.0
 41
1.0
 50
0.0
 71
0
 42
2.5
  3
OpenSans-Regular.ttf
  4

  0
STYLE
  5
44
330
5
100
AcDbSymbolTableRecord
100
AcDbTextStyleTableRecord
  2
OpenSans-Italic
 70
0
 40
0.0
 41
1.0
 50
0.0
 71
0
 42
2.5
  3
OpenSans-Italic.ttf
  4

  0
STYLE
  5
45
330
5
100
AcDbSymbolTableRecord
100
AcDbTextStyleTableRecord
  2
OpenSans-SemiBold
 70
0
 40
0.0
 41
1.0
 50
0.0
 71
0
 42
2.5
  3
OpenSans-SemiBold.ttf
  4

  0
STYLE
  5
46
330
5
100
AcDbSymbolTableRecord
100
AcDbTextStyleTableRecord
  2
OpenSans-SemiBoldItalic
 70
0
 40
0.0
 41
1.0
 50
0.0
 71
0
 42
2.5
  3
OpenSans-SemiBoldItalic.ttf
  4

  0
STYLE
  5
47
330
5
100
AcDbSymbolTableRecord
100
AcDbTextStyleTableRecord
  2
OpenSans-Bold
 70
0
 40
0.0
 41
1.0
 50
0.0
 71
0
 42
2.5
  3
OpenSans-Bold.ttf
  4

  0
STYLE
  5
48
330
5
100
AcDbSymbolTableRecord
100
AcDbTextStyleTableRecord
  2
OpenSans-BoldItalic
 70
0
 40
0.0
 41
1.0
 50
0.0
 71
0
 42
2.5
  3
OpenSans-BoldItalic.ttf
  4

  0
STYLE
  5
49
330
5
100
AcDbSymbolTableRecord
100
AcDbTextStyleTableRecord
  2
OpenSans-ExtraBold
 70
0
 40
0.0
 41
1.0
 50
0.0
 71
0
 42
2.5
  3
OpenSans-ExtraBold.ttf
  4

  0
STYLE
  5
4A
330
5
100
AcDbSymbolTableRecord
100
AcDbTextStyleTableRecord
  2
OpenSans-ExtraBoldItalic
 70
0
 40
0.0
 41
1.0
 50
0.0
 71
0
 42
2.5
  3
OpenSans-ExtraBoldItalic.ttf
  4

  0
STYLE
  5
4B
330
5
100
AcDbSymbolTableRecord
100
AcDbTextStyleTableRecord
  2
OpenSansCondensed-Bold
 70
0
 40
0.0
 41
1.0
 50
0.0
 71
0
 42
2.5
  3
OpenSansCondensed-Bold.ttf
  4

  0
STYLE
  5
4C
330
5
100
AcDbSymbolTableRecord
100
AcDbTextStyleTableRecord
  2
OpenSansCondensed-Light
 70
0
 40
0.0
 41
1.0
 50
0.0
 71
0
 42
2.5
  3
OpenSansCondensed-Light.ttf
  4

  0
STYLE
  5
4D
330
5
100
AcDbSymbolTableRecord
100
AcDbTextStyleTableRecord
  2
OpenSansCondensed-Italic
 70
0
 40
0.0
 41
1.0
 50
0.0
 71
0
 42
2.5
  3
OpenSansCondensed-LightItalic.ttf
  4

  0
STYLE
  5
4E
330
5
100
AcDbSymbolTableRecord
100
AcDbTextStyleTableRecord
  2
LiberationSans
 70
0
 40
0.0
 41
1.0
 50
0.0
 71
0
 42
2.5
  3
LiberationSans-Regular.ttf
  4

  0
STYLE
  5
4F
330
5
100
AcDbSymbolTableRecord
100
AcDbTextStyleTableRecord
  2
LiberationSans-Bold
 70
0
 40
0.0
 41
1.0
 50
0.0
 71
0
 42
2.5
  3
LiberationSans-Bold.ttf
  4

  0
STYLE
  5
50
330
5
100
AcDbSymbolTableRecord
100
AcDbTextStyleTableRecord
  2
LiberationSans-BoldItalic
 70
0
 40
0.0
 41
1.0
 50
0.0
 71
0
 42
2.5
  3
LiberationSans-BoldItalic.ttf
  4

  0
STYLE
  5
51
330
5
100
AcDbSymbolTableRecord
100
AcDbTextStyleTableRecord
  2
LiberationSans-Italic
 70
0
 40
0.0
 41
1.0
 50
0.0
 71
0
 42
2.5
  3
LiberationSans-Italic.ttf
  4

  0
STYLE
  5
52
330
5
100
AcDbSymbolTableRecord
100
AcDbTextStyleTableRecord
  2
LiberationSerif
 70
0
 40
0.0
 41
1.0
 50
0.0
 71
0
 42
2.5
  3
LiberationSerif-Regular.ttf
  4

  0
STYLE
  5
53
330
5
100
AcDbSymbolTableRecord
100
AcDbTextStyleTableRecord
  2
LiberationSerif-Bold
 70
0
 40
0.0
 41
1.0
 50
0.0
 71
0
 42
2.5
  3
LiberationSerif-Bold.ttf
  4

  0
STYLE
  5
54
330
5
100
AcDbSymbolTableRecord
100
AcDbTextStyleTableRecord
  2
LiberationSerif-BoldItalic
 70
0
 40
0.0
 41
1.0
 50
0.0
 71
0
 42
2.5
  3
LiberationSerif-BoldItalic.ttf
  4

  0
STYLE
  5
55
330
5
100
AcDbSymbolTableRecord
100
AcDbTextStyleTableRecord
  2
LiberationSerif-Italic
 70
0
 40
0.0
 41
1.0
 50
0.0
 71
0
 42
2.5
  3
LiberationSerif-Italic.ttf
  4

  0
STYLE
  5
56
330
5
100
AcDbSymbolTableRecord
100
AcDbTextStyleTableRecord
  2
LiberationMono
 70
0
 40
0.0
 41
1.0
 50
0.0
 71
0
 42
2.5
  3
LiberationMono-Regular.ttf
  4

  0
STYLE
  5
57
330
5
100
AcDbSymbolTableRecord
100
AcDbTextStyleTableRecord
  2
LiberationMono-Bold
 70
0
 40
0.0
 41
1.0
 50
0.0
 71
0
 42
2.5
  3
LiberationMono-Bold.ttf
  4

  0
STYLE
  5
58
330
5
100
AcDbSymbolTableRecord
100
AcDbTextStyleTableRecord
  2
LiberationMono-BoldItalic
 70
0
 40
0.0
 41
1.0
 50
0.0
 71
0
 42
2.5
  3
LiberationMono-BoldItalic.ttf
  4

  0
STYLE
  5
59
330
5
100
AcDbSymbolTableRecord
100
AcDbTextStyleTableRecord
  2
LiberationMono-Italic
 70
0
 40
0.0
 41
1.0
 50
0.0
 71
0
 42
2.5
  3
LiberationMono-Italic.ttf
  4

  0
STYLE
  5
97
330
5
100
AcDbSymbolTableRecord
100
AcDbTextStyleTableRecord
  2
NOTES
 70
0
 40
0.0
 41
1.0
 50
0.0
 71
0
 42
2.5
  3
arial.ttf
  4

  0
ENDTAB
  0
TABLE
  2
VIEW
  5
7
330
0
100
AcDbSymbolTable
 70
0
  0
ENDTAB
  0
TABLE
  2
UCS
  5
6
330
0
100
AcDbSymbolTable
 70
0
  0
ENDTAB
  0
TABLE
  2
APPID
  5
3
330
0
100
AcDbSymbolTable
 70
3
  0
APPID
  5
2A
330
3
100
AcDbSymbolTableRecord
100
AcDbRegAppTableRecord
  2
ACAD
 70
0
  0
APPID
  5
13E
330
3
100
AcDbSymbolTableRecord
100
AcDbRegAppTableRecord
  2
HATCHBACKGROUNDCOLOR
 70
0
  0
APPID
  5
13F
330
3
100
AcDbSymbolTableRecord
100
AcDbRegAppTableRecord
  2
EZDXF
 70
0
  0
ENDTAB
  0
TABLE
  2
DIMSTYLE
  5
4
330
0
100
AcDbSymbolTable
 70
13
100
AcDbDimStyleTable
  0
DIMSTYLE
105
2B
330
4
100
AcDbSymbolTableRecord
100
AcDbDimStyleTableRecord
  2
Standard
 70
0
 40
1.0
 41
2.5
 42
0.625
 43
3.75
 44
1.25
 45
0.0
 46
0.0
 47
0.0
 48
0.0
 49
2.5
140
2.5
141
2.5
142
0.0
143
0.03937007874
144
1.0
145
0.0
146
1.0
147
0.625
148
0.0
 69
0
 70
0
 71
0
 72
0
 73
0
 74
0
 75
0
 76
0
 77
1
 78
8
 79
3
170
0
171
3
172
1
173
0
174
0
175
0
176
0
177
0
178
0
179
2
271
2
272
2
273
2
274
3
275
0
276
0
277
2
278
44
279
0
280
0
281
0
282
0
283
0
284
8
285
0
286
0
288
0
289
3
290
0
371
-2
372
-2
  0
DIMSTYLE
105
73
330
4
100
AcDbSymbolTableRecord
100
AcDbDimStyleTableRecord
  2
EZDXF
 70
0
 40
1.0
 41
0.175
 42
0.125
 43
3.75
 44
0.375
 45
0.0
 46
0.0
 47
0.0
 48
0.0
 49
2.5
140
0.25
141
2.5
142
0.0
143
0.03937007874
144
100.0
145
0.0
146
0.5
147
0.1
148
0.0
 69
0
 70
0
 71
0
 72
0
 73
0
 74
0
 75
0
 76
0
 77
1
 78
12
 79
3
170
0
171
3
172
1
173
0
174
0
175
0
176
0
177
0
178
0
179
2
271
2
272
2
273
2
274
3
275
0
276
0
277
2
278
46
279
2
280
0
281
0
282
0
283
0
284
8
285
0
286
0
288
1
289
3
290
0
340
4C
342
74
371
-2
372
-2
  0
DIMSTYLE
105
7C
330
4
100
AcDbSymbolTableRecord
100
AcDbDimStyleTableRecord
  2
EZ_M_100_H25_CM
 70
0
 40
1.0
 41
0.25
 42
0.125
 43
3.75
 44
0.375
 45
0.0
 46
0.0
 47
0.0
 48
0.0
 49
2.5
140
0.25
141
2.5
142
0.125
143
0.03937007874
144
100.0
145
0.0
146
0.5
147
0.1
148
0.0
 69
0
 70
0
 71
0
 72
0
 73
0
 74
0
 75
0
 76
0
 77
1
 78
12
 79
3
170
0
171
3
172
1
173
0
174
0
175
0
176
0
177
0
178
0
179
2
271
2
272
2
273
2
274
3
275
0
276
0
277
2
278
46
279
2
280
0
281
0
282
0
283
0
284
8
285
0
286
0
288
1
289
3
290
0
340
4C
371
-2
372
-2
  0
DIMSTYLE
105
7D
330
4
100
AcDbSymbolTableRecord
100
AcDbDimStyleTableRecord
  2
EZ_M_50_H25_CM
 70
0
 40
1.0
 41
0.125
 42
0.0625
 43
3.75
 44
0.1875
 45
0.0
 46
0.0
 47
0.0
 48
0.0
 49
2.5
140
0.125
141
2.5
142
0.0625
143
0.03937007874
144
100.0
145
0.0
146
0.5
147
0.05
148
0.0
 69
0
 70
0
 71
0
 72
0
 73
0
 74
0
 75
0
 76
0
 77
1
 78
12
 79
3
170
0
171
3
172
1
173
0
174
0
175
0
176
0
177
0
178
0
179
2
271
2
272
2
273
2
274
3
275
0
276
0
277
2
278
46
279
2
280
0
281
0
282
0
283
0
284
8
285
0
286
0
288
1
289
3
290
0
340
4C
371
-2
372
-2
  0
DIMSTYLE
105
7E
330
4
100
AcDbSymbolTableRecord
100
AcDbDimStyleTableRecord
  2
EZ_M_25_H25_CM
 70
0
 40
1.0
 41
0.0625
 42
0.03125
 43
3.75
 44
0.09375
 45
0.0
 46
0.0
 47
0.0
 48
0.0
 49
2.5
140
0.0625
141
2.5
142
0.03125
143
0.03937007874
144
100.0
145
0.0
146
0.5
147
0.025
148
0.0
 69
0
 70
0
 71
0
 72
0
 73
0
 74
0
 75
0
 76
0
 77
1
 78
12
 79
3
170
0
171
3
172
1
173
0
174
0
175
0
176
0
177
0
178
0
179
2
271
2
272
2
273
2
274
3
275
0
276
0
277
2
278
46
279
2
280
0
281
0
282
0
283
0
284
8
285
0
286
0
288
1
289
3
290
0
340
4C
371
-2
372
-2
  0
DIMSTYLE
105
7F
330
4
100
AcDbSymbolTableRecord
100
AcDbDimStyleTableRecord
  2
EZ_M_20_H25_CM
 70
0
 40
1.0
 41
0.05
 42
0.025
 43
3.75
 44
0.07500000000000001
 45
0.0
 46
0.0
 47
0.0
 48
0.0
 49
2.5
140
0.05
141
2.5
142
0.025
143
0.03937007874
144
100.0
145
0.0
146
0.5
147
0.020000000000000004
148
0.0
 69
0
 70
0
 71
0
 72
0
 73
0
 74
0
 75
0
 76
0
 77
1
 78
12
 79
3
170
0
171
3
172
1
173
0
174
0
175
0
176
0
177
0
178
0
179
2
271
2
272
2
273
2
274
3
275
0
276
0
277
2
278
46
279
2
280
0
281
0
282
0
283
0
284
8
285
0
286
0
288
1
289
3
290
0
340
4C
371
-2
372
-2
  0
DIMSTYLE
105
80
330
4
100
AcDbSymbolTableRecord
100
AcDbDimStyleTableRecord
  2
EZ_M_10_H25_CM
 70
0
 40
1.0
 41
0.025
 42
0.0125
 43
3.75
 44
0.037500000000000006
 45
0.0
 46
0.0
 47
0.0
 48
0.0
 49
2.5
140
0.025
141
2.5
142
0.0125
143
0.03937007874
144
100.0
145
0.0
146
0.5
147
0.010000000000000002
148
0.0
 69
0
 70
0
 71
0
 72
0
 73
0
 74
0
 75
0
 76
0
 77
1
 78
12
 79
3
170
0
171
3
172
1
173
0
174
0
175
0
176
0
177
0
178
0
179
2
271
2
272
2
273
2
274
3
275
0
276
0
277
2
278
46
279
2
280
0
281
0
282
0
283
0
284
8
285
0
286
0
288
1
289
3
290
0
340
4C
371
-2
372
-2
  0
DIMSTYLE
105
81
330
4
100
AcDbSymbolTableRecord
100
AcDbDimStyleTableRecord
  2
EZ_M_5_H25_CM
 70
0
 40
1.0
 41
0.0125
 42
0.00625
 43
3.75
 44
0.018750000000000003
 45
0.0
 46
0.0
 47
0.0
 48
0.0
 49
2.5
140
0.0125
141
2.5
142
0.00625
143
0.03937007874
144
100.0
145
0.0
146
0.5
147
0.005000000000000001
148
0.0
 69
0
 70
0
 71
0
 72
0
 73
0
 74
0
 75
0
 76
0
 77
1
 78
12
 79
3
170
0
171
3
172
1
173
0
174
0
175
0
176
0
177
0
178
0
179
2
271
2
272
2
273
2
274
3
275
0
276
0
277
2
278
46
279
2
280
0
281
0
282
0
283
0
284
8
285
0
286
0
288
1
289
3
290
0
340
4C
371
-2
372
-2
  0
DIMSTYLE
105
82
330
4
100
AcDbSymbolTableRecord
100
AcDbDimStyleTableRecord
  2
EZ_M_1_H25_CM
 70
0
 40
1.0
 41
0.0025
 42
0.00125
 43
3.75
 44
0.00375
 45
0.0
 46
0.0
 47
0.0
 48
0.0
 49
2.5
140
0.0025
141
2.5
142
0.00125
143
0.03937007874
144
100.0
145
0.0
146
0.5
147
0.001
148
0.0
 69
0
 70
0
 71
0
 72
0
 73
0
 74
0
 75
0
 76
0
 77
1
 78
12
 79
3
170
0
171
3
172
1
173
0
174
0
175
0
176
0
177
0
178
0
179
2
271
2
272
2
273
2
274
3
275
0
276
0
277
2
278
46
279
2
280
0
281
0
282
0
283
0
284
8
285
0
286
0
288
1
289
3
290
0
340
4C
371
-2
372
-2
  0
DIMSTYLE
105
83
330
4
100
AcDbSymbolTableRecord
100
AcDbDimStyleTableRecord
  2
EZ_RADIUS
 70
0
 40
1.0
 41
0.25
 42
0.125
 43
3.75
 44
0.375
 45
0.0
 46
0.0
 47
0.0
 48
0.0
 49
2.5
140
0.25
141
0.0
142
0.0
143
0.03937007874
144
100.0
145
0.0
146
0.5
147
0.1
148
0.0
 69
0
 70
0
 71
0
 72
0
 73
0
 74
0
 75
0
 76
0
 77
1
 78
12
 79
3
170
0
171
3
172
0
173
0
174
0
175
0
176
0
177
0
178
0
179
2
271
2
272
2
273
2
274
3
275
0
276
0
277
2
278
46
279
1
280
0
281
0
282
0
283
0
284
8
285
0
286
0
288
1
289
3
290
0
340
4C
342
84
371
-2
372
-2
  0
DIMSTYLE
105
88
330
4
100
AcDbSymbolTableRecord
100
AcDbDimStyleTableRecord
  2
EZ_RADIUS_INSIDE
 70
0
 40
1.0
 41
0.25
 42
0.125
 43
3.75
 44
0.375
 45
0.0
 46
0.0
 47
0.0
 48
0.0
 49
2.5
140
0.25
141
0.0
142
0.0
143
0.03937007874
144
100.0
145
0.0
146
0.5
147
0.1
148
0.0
 69
0
 70
0
 71
0
 72
0
 73
0
 74
0
 75
0
 76
0
 77
0
 78
12
 79
3
170
0
171
3
172
0
173
0
174
1
175
0
176
0
177
0
178
0
179
2
271
2
272
2
273
2
274
3
275
0
276
0
277
2
278
46
279
0
280
0
281
0
282
0
283
0
284
8
285
0
286
0
288
1
289
0
290
0
340
4C
342
84
371
-2
372
-2
  0
DIMSTYLE
105
89
330
4
100
AcDbSymbolTableRecord
100
AcDbDimStyleTableRecord
  2
EZ_CURVED
 70
0
 40
1.0
 41
0.25
 42
0.125
 43
3.75
 44
0.375
 45
0.0
 46
0.0
 47
0.0
 48
0.0
 49
2.5
140
0.25
141
2.5
142
0.0
143
0.03937007874
144
100.0
145
0.0
146
0.5
147
0.1
148
0.0
 69
0
 70
0
 71
0
 72
0
 73
0
 74
0
 75
0
 76
0
 77
1
 78
12
 79
2
 90
2
170
0
171
3
172
1
173
0
174
0
175
0
176
0
177
0
178
0
179
2
271
2
272
2
273
2
274
3
275
0
276
0
277
2
278
46
279
2
280
0
281
0
282
0
283
0
284
8
285
0
286
0
288
1
289
3
290
0
340
4C
371
-2
372
-2
  0
DIMSTYLE
105
98
330
4
100
AcDbSymbolTableRecord
100
AcDbDimStyleTableRecord
  2
SITE-1000
 70
0
 40
1.0
 41
2.2
 42
1.0
 43
3.75
 44
1.6
 45
0.0
 46
0.0
 47
0.0
 48
0.0
 49
2.5
140
3.0
141
2.5
142
0.0
143
0.03937007874
144
1.0
145
0.0
146
1.0
147
0.625
148
0.0
 69
0
 70
0
 71
0
 72
0
 73
0
 74
0
 75
0
 76
0
 77
1
 78
8
 79
3
170
0
171
3
172
1
173
0
174
0
175
0
176
0
177
0
178
0
179
2
271
1
272
2
273
2
274
3
275
0
276
0
277
2
278
44
279
0
280
0
281
0
282
0
283
0
284
8
285
0
286
0
288
0
289
3
290
0
340
97
371
-2
372
-2
  0
ENDTAB
  0
TABLE
  2
BLOCK_RECORD
  5
9
330
0
100
AcDbSymbolTable
 70
12
  0
BLOCK_RECORD
  5
17
330
9
100
AcDbSymbolTableRecord
100
AcDbBlockTableRecord
  2
*Model_Space
340
1A
 70
0
280
1
281
0
  0
BLOCK_RECORD
  5
1B
330
9
100
AcDbSymbolTableRecord
100
AcDbBlockTableRecord
  2
*Paper_Space
340
1E
 70
0
280
1
281
0
  0
BLOCK_RECORD
  5
74
330
9
100
AcDbSymbolTableRecord
100
AcDbBlockTableRecord
  2
_ARCHTICK
340
0
 70
0
280
1
281
0
  0
BLOCK_RECORD
  5
78
330
9
100
AcDbSymbolTableRecord
100
AcDbBlockTableRecord
  2
_CLOSEDFILLED
340
0
 70
0
280
1
281
0
  0
BLOCK_RECORD
  5
84
330
9
100
AcDbSymbolTableRecord
100
AcDbBlockTableRecord
  2
_CLOSEDBLANK
340
0
 70
0
280
1
281
0
  0
BLOCK_RECORD
  5
9C
330
9
100
AcDbSymbolTableRecord
100
AcDbBlockTableRecord
  2
*D1
340
0
 70
0
280
1
281
0
  0
BLOCK_RECORD
  5
A9
330
9
100
AcDbSymbolTableRecord
100
AcDbBlockTableRecord
  2
*D2
340
0
 70
0
280
1
281
0
  0
BLOCK_RECORD
  5
B6
330
9
100
AcDbSymbolTableRecord
100
AcDbBlockTableRecord
  2
*D3
340
0
 70
0
280
1
281
0
  0
BLOCK_RECORD
  5
C3
330
9
100
AcDbSymbolTableRecord
100
AcDbBlockTableRecord
  2
*D4
340
0
 70
0
280
1
281
0
  0
BLOCK_RECORD
  5
D3
330
9
100
AcDbSymbolTableRecord
100
AcDbBlockTableRecord
  2
*D5
340
0
 70
0
280
1
281
0
  0
BLOCK_RECORD
  5
E3
330
9
100
AcDbSymbolTableRecord
100
AcDbBlockTableRecord
  2
*D6
340
0
 70
0
280
1
281
0
  0
BLOCK_RECORD
  5
F2
330
9
100
AcDbSymbolTableRecord
100
AcDbBlockTableRecord
  2
*D7
340
0
 70
0
280
1
281
0
  0
ENDTAB
  0
ENDSEC
  0
SECTION
  2
BLOCKS
  0
BLOCK
  5
18
330
17
100
AcDbEntity
  8
0
100
AcDbBlockBegin
  2
*Model_Space
 70
0
 10
0.0
 20
0.0
 30
0.0
  3
*Model_Space
  1

  0
ENDBLK
  5
19
330
17
100
AcDbEntity
  8
0
100
AcDbBlockEnd
  0
BLOCK
  5
1C
330
1B
100
AcDbEntity
  8
0
100
AcDbBlockBegin
  2
*Paper_Space
 70
0
 10
0.0
 20
0.0
 30
0.0
  3
*Paper_Space
  1

  0
ENDBLK
  5
1D
330
1B
100
AcDbEntity
  8
0
100
AcDbBlockEnd
  0
BLOCK
  5
75
330
74
100
AcDbEntity
  8
0
100
AcDbBlockBegin
  2
_ARCHTICK
 70
0
 10
0.0
 20
0.0
 30
0.0
  3
_ARCHTICK
  1

  0
LWPOLYLINE
  5
77
330
74
100
AcDbEntity
  8
0
  6
BYBLOCK
 62
0
100
AcDbPolyline
 90
2
 70
0
 43
0.15
 10
-0.5
 20
-0.5
 10
0.5
 20
0.5
  0
ENDBLK
  5
76
330
74
100
AcDbEntity
  8
0
100
AcDbBlockEnd
  0
BLOCK
  5
79
330
78
100
AcDbEntity
  8
0
100
AcDbBlockBegin
  2
_CLOSEDFILLED
 70
0
 10
0.0
 20
0.0
 30
0.0
  3
_CLOSEDFILLED
  1

  0
SOLID
  5
7B
330
78
100
AcDbEntity
  8
0
  6
BYBLOCK
 62
0
100
AcDbTrace
 10
-1.0
 20
0.16439898372402537
 30
0.0
 11
0.0
 21
0.0
 31
0.0
 12
-1.0
 22
-0.16439898372402537
 32
0.0
 13
-1.0
 23
-0.16439898372402537
 33
0.0
  0
ENDBLK
  5
7A
330
78
100
AcDbEntity
  8
0
100
AcDbBlockEnd
  0
BLOCK
  5
85
330
84
100
AcDbEntity
  8
0
100
AcDbBlockBegin
  2
_CLOSEDBLANK
 70
0
 10
0.0
 20
0.0
 30
0.0
  3
_CLOSEDBLANK
  1

  0
LWPOLYLINE
  5
87
330
84
100
AcDbEntity
  8
0
  6
BYBLOCK
 62
0
100
AcDbPolyline
 90
3
 70
1
 10
-1.0
 20
0.16439898372402537
 10
0.0
 20
0.0
 10
-1.0
 20
-0.16439898372402537
  0
ENDBLK
  5
86
330
84
100
AcDbEntity
  8
0
100
AcDbBlockEnd
  0
BLOCK
  5
9D
330
9C
100
AcDbEntity
  8
0
100
AcDbBlockBegin
  2
*D1
 70
1
 10
0.0
 20
0.0
 30
0.0
  3
*D1
  1

  0
INSERT
  5
9F
330
9C
100
AcDbEntity
  8
A-ANNO-DIMS
100
AcDbBlockReference
  2
_CLOSEDFILLED
 10
225.27047663896548
 20
213.54604839123024
 30
0.0
 41
2.2
 42
2.2
 50
231.99999999999983
  0
LINE
  5
A1
330
9C
100
AcDbEntity
  8
0
100
AcDbLine
 10
222.5
 20
210.0
 30
0.0
 11
225.27047663896548
 21
213.54604839123024
 31
0.0
  0
LINE
  5
A2
330
9C
100
AcDbEntity
  8
0
100
AcDbLine
 10
227.00972030676047
 20
215.77217877016923
 30
0.0
 11
226.62493188468193
 21
215.27967204916501
 31
0.0
  0
MTEXT
  5
A3
330
9C
100
AcDbEntity
  8
A-ANNO-DIMS
100
AcDbMText
 10
232.55067358469142
 20
222.86427555262972
 30
0.0
 40
3.0
 71
5
  1
R4,5 m
  7
NOTES
 50
51.99999999999982
  0
POINT
  5
A4
330
9C
100
AcDbEntity
  8
Defpoints
100
AcDbPoint
 10
222.5
 20
210.0
 30
0.0
  0
POINT
  5
A5
330
9C
100
AcDbEntity
  8
Defpoints
100
AcDbPoint
 10
225.27047663896548
 20
213.54604839123024
 30
0.0
  0
ENDBLK
  5
9E
330
9C
100
AcDbEntity
  8
0
100
AcDbBlockEnd
  0
BLOCK
  5
AA
330
A9
100
AcDbEntity
  8
0
100
AcDbBlockBegin
  2
*D2
 70
1
 10
0.0
 20
0.0
 30
0.0
  3
*D2
  1

  0
INSERT
  5
AC
330
A9
100
AcDbEntity
  8
A-ANNO-DIMS
100
AcDbBlockReference
  2
_CLOSEDFILLED
 10
238.50719835846712
 20
230.48827959377476
 30
0.0
 41
2.2
 42
2.2
 50
232.0
  0
LINE
  5
AE
330
A9
100
AcDbEntity
  8
0
100
AcDbLine
 10
222.5
 20
210.0
 30
0.0
 11
238.50719835846712
 21
230.48827959377476
 31
0.0
  0
LINE
  5
AF
330
A9
100
AcDbEntity
  8
0
100
AcDbLine
 10
240.24644202626212
 20
232.71440997271375
 30
0.0
 11
239.86165360418357
 21
232.22190325170956
 31
0.0
  0
MTEXT
  5
B0
330
A9
100
AcDbEntity
  8
A-ANNO-DIMS
100
AcDbMText
 10
244.86390309120455
 20
238.62449062476418
 30
0.0
 40
3.0
 71
5
  1
R26 m
  7
NOTES
 50
51.999999999999986
  0
POINT
  5
B1
330
A9
100
AcDbEntity
  8
Defpoints
100
AcDbPoint
 10
222.5
 20
210.0
 30
0.0
  0
POINT
  5
B2
330
A9
100
AcDbEntity
  8
Defpoints
100
AcDbPoint
 10
238.50719835846712
 20
230.48827959377476
 30
0.0
  0
ENDBLK
  5
AB
330
A9
100
AcDbEntity
  8
0
100
AcDbBlockEnd
  0
BLOCK
  5
B7
330
B6
100
AcDbEntity
  8
0
100
AcDbBlockBegin
  2
*D3
 70
1
 10
0.0
 20
0.0
 30
0.0
  3
*D3
  1

  0
INSERT
  5
B9
330
B6
100
AcDbEntity
  8
A-ANNO-DIMS
100
AcDbBlockReference
  2
_CLOSEDFILLED
 10
253.2830737662829
 20
249.4005376803361
 30
0.0
 41
2.2
 42
2.2
 50
232.0
  0
LINE
  5
BB
330
B6
100
AcDbEntity
  8
0
100
AcDbLine
 10
222.5
 20
210.0
 30
0.0
 11
253.2830737662829
 21
249.4005376803361
 31
0.0
  0
LINE
  5
BC
330
B6
100
AcDbEntity
  8
0
100
AcDbLine
 10
255.0223174340779
 20
251.6266680592751
 30
0.0
 11
254.63752901199936
 21
251.1341613382709
 31
0.0
  0
MTEXT
  5
BD
330
B6
100
AcDbEntity
  8
A-ANNO-DIMS
100
AcDbMText
 10
259.63977849902034
 20
257.5367487113255
 30
0.0
 40
3.0
 71
5
  1
R50 m
  7
NOTES
 50
52.00000000000001
  0
POINT
  5
BE
330
B6
100
AcDbEntity
  8
Defpoints
100
AcDbPoint
 10
222.5
 20
210.0
 30
0.0
  0
POINT
  5
BF
330
B6
100
AcDbEntity
  8
Defpoints
100
AcDbPoint
 10
253.2830737662829
 20
249.4005376803361
 30
0.0
  0
ENDBLK
  5
B8
330
B6
100
AcDbEntity
  8
0
100
AcDbBlockEnd
  0
BLOCK
  5
C4
330
C3
100
AcDbEntity
  8
0
100
AcDbBlockBegin
  2
*D4
 70
1
 10
0.0
 20
0.0
 30
0.0
  3
*D4
  1

  0
INSERT
  5
C6
330
C3
100
AcDbEntity
  8
A-ANNO-DIMS
100
AcDbBlockReference
  2
_CLOSEDFILLED
 10
284.0661475325658
 20
288.8010753606722
 30
0.0
 41
2.2
 42
2.2
 50
232.0
  0
LINE
  5
C8
330
C3
100
AcDbEntity
  8
0
100
AcDbLine
 10
222.5
 20
210.0
 30
0.0
 11
284.0661475325658
 21
288.8010753606722
 31
0.0
  0
LINE
  5
C9
330
C3
100
AcDbEntity
  8
0
100
AcDbLine
 10
285.8053912003608
 20
291.0272057396112
 30
0.0
 11
285.4206027782823
 21
290.534699018607
 31
0.0
  0
MTEXT
  5
CA
330
C3
100
AcDbEntity
  8
A-ANNO-DIMS
100
AcDbMText
 10
291.3463444782917
 20
298.1193025220717
 30
0.0
 40
3.0
 71
5
  1
R100 m
  7
NOTES
 50
52.00000000000001
  0
POINT
  5
CB
330
C3
100
AcDbEntity
  8
Defpoints
100
AcDbPoint
 10
222.5
 20
210.0
 30
0.0
  0
POINT
  5
CC
330
C3
100
AcDbEntity
  8
Defpoints
100
AcDbPoint
 10
284.0661475325658
 20
288.8010753606722
 30
0.0
  0
ENDBLK
  5
C5
330
C3
100
AcDbEntity
  8
0
100
AcDbBlockEnd
  0
BLOCK
  5
D4
330
D3
100
AcDbEntity
  8
0
100
AcDbBlockBegin
  2
*D5
 70
1
 10
0.0
 20
0.0
 30
0.0
  3
*D5
  1

  0
LINE
  5
D6
330
D3
100
AcDbEntity
  8
0
100
AcDbLine
 10
201.1507452200421
 20
206.26445180188443
 30
0.0
 11
204.11730836604156
 21
215.3945943583179
 31
0.0
  0
LINE
  5
D7
330
D3
100
AcDbEntity
  8
0
100
AcDbLine
 10
237.57620979414648
 20
194.42910091732395
 30
0.0
 11
240.54277294014594
 21
203.55924347375745
 31
0.0
  0
INSERT
  5
D8
330
D3
100
AcDbEntity
  8
A-ANNO-DIMS
100
AcDbBlockReference
  2
_CLOSEDFILLED
 10
203.62288117504164
 20
213.87290393224566
 30
0.0
 41
2.2
 42
2.2
 50
162.0
  0
INSERT
  5
DA
330
D3
100
AcDbEntity
  8
A-ANNO-DIMS
100
AcDbBlockReference
  2
_CLOSEDFILLED
 10
240.04834574914602
 20
202.0375530476852
 30
0.0
 41
2.2
 42
2.2
 50
-17.999999999999996
  0
LINE
  5
DC
330
D3
100
AcDbEntity
  8
0
100
AcDbLine
 10
205.71520551089097
 20
213.1930665446208
 30
0.0
 11
213.27610481543744
 21
210.73638143933997
 31
0.0
  0
LINE
  5
DD
330
D3
100
AcDbEntity
  8
0
100
AcDbLine
 10
230.3951221087502
 20
205.1740755405909
 30
0.0
 11
237.9560214132967
 21
202.71739043531008
 31
0.0
  0
MTEXT
  5
DE
330
D3
100
AcDbEntity
  8
A-ANNO-DIMS
100
AcDbMText
 10
221.83561346209382
 20
207.95522848996544
 30
0.0
 40
3.0
 71
5
  1
38,3 m
  7
NOTES
 50
-17.999999999999996
  0
POINT
  5
DF
330
D3
100
AcDbEntity
  8
Defpoints
100
AcDbPoint
 10
203.62288117504164
 20
213.87290393224566
 30
0.0
  0
POINT
  5
E0
330
D3
100
AcDbEntity
  8
Defpoints
100
AcDbPoint
 10
200.84172822566714
 20
205.31339528558928
 30
0.0
  0
POINT
  5
E1
330
D3
100
AcDbEntity
  8
Defpoints
100
AcDbPoint
 10
237.26719279977152
 20
193.4780444010288
 30
0.0
  0
ENDBLK
  5
D5
330
D3
100
AcDbEntity
  8
0
100
AcDbBlockEnd
  0
BLOCK
  5
E4
330
E3
100
AcDbEntity
  8
0
100
AcDbBlockBegin
  2
*D6
 70
1
 10
0.0
 20
0.0
 30
0.0
  3
*D6
  1

  0
LINE
  5
E6
330
E3
100
AcDbEntity
  8
0
100
AcDbLine
 10
236.31613628347637
 20
193.78706139540375
 30
0.0
 11
227.18599372704293
 21
196.75362454140338
 31
0.0
  0
LINE
  5
E7
330
E3
100
AcDbEntity
  8
0
100
AcDbLine
 10
243.2072152580377
 20
214.99562170878568
 30
0.0
 11
234.07707270160424
 21
217.96218485478514
 31
0.0
  0
INSERT
  5
E8
330
E3
100
AcDbEntity
  8
A-ANNO-DIMS
100
AcDbBlockReference
  2
_CLOSEDFILLED
 10
228.70768415311517
 20
196.25919735040344
 30
0.0
 41
2.2
 42
2.2
 50
251.99999999999997
  0
INSERT
  5
EA
330
E3
100
AcDbEntity
  8
A-ANNO-DIMS
100
AcDbBlockReference
  2
_CLOSEDFILLED
 10
235.59876312767648
 20
217.46775766378522
 30
0.0
 41
2.2
 42
2.2
 50
71.99999999999997
  0
LINE
  5
EC
330
E3
100
AcDbEntity
  8
0
100
AcDbLine
 10
229.38752154074004
 20
198.35152168625277
 30
0.0
 11
234.9189257400516
 21
215.3754333279359
 31
0.0
  0
MTEXT
  5
ED
330
E3
100
AcDbEntity
  8
A-ANNO-DIMS
100
AcDbMText
 10
228.61053811719637
 20
208.014565811141
 30
0.0
 40
3.0
 71
5
  1
22,3 m
  7
NOTES
 50
71.99999999999997
  0
POINT
  5
EE
330
E3
100
AcDbEntity
  8
Defpoints
100
AcDbPoint
 10
228.70768415311517
 20
196.25919735040344
 30
0.0
  0
POINT
  5
EF
330
E3
100
AcDbEntity
  8
Defpoints
100
AcDbPoint
 10
237.26719279977152
 20
193.4780444010288
 30
0.0
  0
POINT
  5
F0
330
E3
100
AcDbEntity
  8
Defpoints
100
AcDbPoint
 10
244.15827177433286
 20
214.68660471441072
 30
0.0
  0
ENDBLK
  5
E5
330
E3
100
AcDbEntity
  8
0
100
AcDbBlockEnd
  0
BLOCK
  5
F3
330
F2
100
AcDbEntity
  8
0
100
AcDbBlockBegin
  2
*D7
 70
1
 10
0.0
 20
0.0
 30
0.0
  3
*D7
  1

  0
LINE
  5
F5
330
F2
100
AcDbEntity
  8
0
100
AcDbLine
 10
240.40371529267722
 20
203.1312680414246
 30
0.0
 11
238.3642031298026
 21
196.8542950338766
 31
0.0
  0
LINE
  5
F6
330
F2
100
AcDbEntity
  8
0
100
AcDbLine
 10
246.11005439044817
 20
201.27716607517493
 30
0.0
 11
244.07054222757355
 21
195.00019306762695
 31
0.0
  0
INSERT
  5
F7
330
F2
100
AcDbEntity
  8
A-ANNO-DIMS
100
AcDbBlockReference
  2
_CLOSEDFILLED
 10
238.85863032080252
 20
198.37598545994885
 30
0.0
 41
2.2
 42
2.2
 50
162.00000000000023
  0
INSERT
  5
F9
330
F2
100
AcDbEntity
  8
A-ANNO-DIMS
100
AcDbBlockReference
  2
_CLOSEDFILLED
 10
244.56496941857347
 20
196.5218834936992
 30
0.0
 41
2.2
 42
2.2
 50
-17.99999999999976
  0
LINE
  5
FB
330
F2
100
AcDbEntity
  8
0
100
AcDbLine
 10
240.95095465665185
 20
197.69614807232398
 30
0.0
 11
242.4726450827241
 21
197.20172088132406
 31
0.0
  0
MTEXT
  5
FC
330
F2
100
AcDbEntity
  8
A-ANNO-DIMS
100
AcDbMText
 10
242.86288817373463
 20
200.9916200000235
 30
0.0
 40
3.0
 71
5
  1
6 m
  7
NOTES
 50
-17.99999999999976
  0
POINT
  5
FD
330
F2
100
AcDbEntity
  8
Defpoints
100
AcDbPoint
 10
238.85863032080252
 20
198.37598545994885
 30
0.0
  0
POINT
  5
FE
330
F2
100
AcDbEntity
  8
Defpoints
100
AcDbPoint
 10
240.71273228705218
 20
204.08232455771974
 30
0.0
  0
POINT
  5
FF
330
F2
100
AcDbEntity
  8
Defpoints
100
AcDbPoint
 10
246.4190713848231
 20
202.2282225914701
 30
0.0
  0
ENDBLK
  5
F4
330
F2
100
AcDbEntity
  8
0
100
AcDbBlockEnd
  0
ENDSEC
  0
SECTION
  2
ENTITIES
  0
CIRCLE
  5
99
330
17
100
AcDbEntity
  8
C-SITE-STDF-ASSM
  6
DASHED
100
AcDbCircle
 10
222.5
 20
210.0
 30
0.0
 40
4.5
  0
TEXT
  5
9A
330
17
100
AcDbEntity
  8
C-SITE-STDF-ASSM
100
AcDbText
 10
225.5
 20
217.0
 30
0.0
 40
3.0
  1
R 4.5 m  Crater / point of impact  [ASSUMED]
  7
NOTES
 11
225.5
 21
217.0
 31
0.0
100
AcDbText
  0
DIMENSION
  5
9B
330
17
100
AcDbEntity
  8
A-ANNO-DIMS
100
AcDbDimension
280
0
  2
*D1
  3
SITE-1000
 10
222.5
 20
210.0
 30
0.0
 11
232.55067358469142
 21
222.86427555262972
 31
0.0
 70
36
 71
5
  1
<>
100
AcDbRadialDimension
 15
225.27047663896548
 25
213.54604839123024
 35
0.0
  0
CIRCLE
  5
A6
330
17
100
AcDbEntity
  8
C-SITE-STDF-UNKN
  6
DASHED
100
AcDbCircle
 10
222.5
 20
210.0
 30
0.0
 40
26.0
  0
TEXT
  5
A7
330
17
100
AcDbEntity
  8
C-SITE-STDF-UNKN
100
AcDbText
 10
225.5
 20
238.5
 30
0.0
 40
3.0
  1
R 26.0 m  Primary ejecta radius  [UNKNOWN]
  7
NOTES
 11
225.5
 21
238.5
 31
0.0
100
AcDbText
  0
DIMENSION
  5
A8
330
17
100
AcDbEntity
  8
A-ANNO-DIMS
100
AcDbDimension
280
0
  2
*D2
  3
SITE-1000
 10
222.5
 20
210.0
 30
0.0
 11
244.86390309120455
 21
238.62449062476418
 31
0.0
 70
36
 71
5
  1
<>
100
AcDbRadialDimension
 15
238.50719835846712
 25
230.48827959377476
 35
0.0
  0
CIRCLE
  5
B3
330
17
100
AcDbEntity
  8
C-SITE-STDF-ASSM
  6
DASHED
100
AcDbCircle
 10
222.5
 20
210.0
 30
0.0
 40
50.0
  0
TEXT
  5
B4
330
17
100
AcDbEntity
  8
C-SITE-STDF-ASSM
100
AcDbText
 10
225.5
 20
262.5
 30
0.0
 40
3.0
  1
R 50.0 m  Inner cordon  [ASSUMED]
  7
NOTES
 11
225.5
 21
262.5
 31
0.0
100
AcDbText
  0
DIMENSION
  5
B5
330
17
100
AcDbEntity
  8
A-ANNO-DIMS
100
AcDbDimension
280
0
  2
*D3
  3
SITE-1000
 10
222.5
 20
210.0
 30
0.0
 11
259.63977849902034
 21
257.5367487113255
 31
0.0
 70
36
 71
5
  1
<>
100
AcDbRadialDimension
 15
253.2830737662829
 25
249.4005376803361
 35
0.0
  0
CIRCLE
  5
C0
330
17
100
AcDbEntity
  8
C-SITE-STDF-ASSM
  6
DASHED
100
AcDbCircle
 10
222.5
 20
210.0
 30
0.0
 40
100.0
  0
TEXT
  5
C1
330
17
100
AcDbEntity
  8
C-SITE-STDF-ASSM
100
AcDbText
 10
225.5
 20
312.5
 30
0.0
 40
3.0
  1
R 100.0 m  Outer cordon / evacuation  [ASSUMED]
  7
NOTES
 11
225.5
 21
312.5
 31
0.0
100
AcDbText
  0
DIMENSION
  5
C2
330
17
100
AcDbEntity
  8
A-ANNO-DIMS
100
AcDbDimension
280
0
  2
*D4
  3
SITE-1000
 10
222.5
 20
210.0
 30
0.0
 11
291.3463444782917
 21
298.1193025220717
 31
0.0
 70
36
 71
5
  1
<>
100
AcDbRadialDimension
 15
284.0661475325658
 25
288.8010753606722
 35
0.0
  0
LWPOLYLINE
  5
CD
330
17
100
AcDbEntity
  8
C-SITE-SBCK
  6
DASHED
100
AcDbPolyline
 90
4
 70
1
 10
195.63492291921412
 20
203.85080221139108
 10
242.0464809144176
 20
188.77077288589365
 10
250.79166185522863
 20
215.6856722970465
 10
204.38010386002512
 20
230.76570162254393
  0
LWPOLYLINE
  5
CE
330
17
100
AcDbEntity
  8
A-BLDG-OTLN
100
AcDbPolyline
 90
4
 70
1
 10
200.84172822566714
 20
205.31339528558928
 10
237.26719279977152
 20
193.4780444010288
 10
244.15827177433286
 20
214.68660471441072
 10
207.73280720022848
 20
226.5219555989712
  0
HATCH
  5
CF
330
17
100
AcDbEntity
  8
A-BLDG-HTCH
 62
7
100
AcDbHatch
 10
0.0
 20
0.0
 30
0.0
210
0.0
220
0.0
230
1.0
  2
ANSI31
 70
0
 71
0
 91
1
 92
3
 72
0
 73
1
 93
4
 10
200.84172822566714
 20
205.31339528558928
 10
237.26719279977152
 20
193.4780444010288
 10
244.15827177433286
 20
214.68660471441072
 10
207.73280720022848
 20
226.5219555989712
 97
0
 75
1
 76
1
 52
0.0
 41
0.8
 77
0
 78
1
 53
45.0
 43
0.0
 44
0.0
 45
-1.7960512242
 46
1.7960512242
 79
0
 98
0
  0
TEXT
  5
D0
330
17
100
AcDbEntity
  8
A-ANNO-TEXT
100
AcDbText
 10
223.42705098312484
 20
212.85316954888546
 30
0.0
 40
3.4
  1
JENNA APARTMENTS (WARDA)
  7
NOTES
 72
1
 11
223.42705098312484
 21
212.85316954888546
 31
0.0
100
AcDbText
 73
2
  0
TEXT
  5
D1
330
17
100
AcDbEntity
  8
A-ANNO-TEXT
100
AcDbText
 10
221.57294901687516
 20
207.14683045111454
 30
0.0
 40
2.6
  1
G+4 RESIDENTIAL  [ASSUMED]
  7
NOTES
 72
1
 11
221.57294901687516
 21
207.14683045111454
 31
0.0
100
AcDbText
 73
2
  0
DIMENSION
  5
D2
330
17
100
AcDbEntity
  8
A-ANNO-DIMS
100
AcDbDimension
280
0
  2
*D5
  3
SITE-1000
 10
203.62288117504164
 20
213.87290393224566
 30
0.0
 11
221.83561346209382
 21
207.95522848996544
 31
0.0
 70
32
 71
5
  1
<>
100
AcDbAlignedDimension
 13
200.84172822566714
 23
205.31339528558928
 33
0.0
 14
237.26719279977152
 24
193.4780444010288
 34
0.0
 50
-17.999999999999996
100
AcDbRotatedDimension
  0
DIMENSION
  5
E2
330
17
100
AcDbEntity
  8
A-ANNO-DIMS
100
AcDbDimension
280
0
  2
*D6
  3
SITE-1000
 10
228.70768415311517
 20
196.25919735040344
 30
0.0
 11
228.61053811719637
 21
208.014565811141
 31
0.0
 70
32
 71
5
  1
<>
100
AcDbAlignedDimension
 13
237.26719279977152
 23
193.4780444010288
 33
0.0
 14
244.15827177433286
 24
214.68660471441072
 34
0.0
 50
71.99999999999997
100
AcDbRotatedDimension
  0
DIMENSION
  5
F1
330
17
100
AcDbEntity
  8
A-ANNO-DIMS
100
AcDbDimension
280
0
  2
*D7
  3
SITE-1000
 10
238.85863032080252
 20
198.37598545994885
 30
0.0
 11
242.86288817373463
 21
200.9916200000235
 31
0.0
 70
32
 71
5
  1
<>
100
AcDbAlignedDimension
 13
240.71273228705218
 23
204.08232455771974
 33
0.0
 14
246.4190713848231
 24
202.2282225914701
 34
0.0
 50
-17.99999999999976
100
AcDbRotatedDimension
  0
TEXT
  5
100
330
17
100
AcDbEntity
  8
C-SITE-SBCK
100
AcDbText
 10
246.49108798433406
 20
192.74166296168886
 30
0.0
 40
2.6
  1
FRONT SETBACK 6.0 m [ASSUMED]
  7
NOTES
 11
246.49108798433406
 21
192.74166296168886
 31
0.0
100
AcDbText
  0
TEXT
  5
101
330
17
100
AcDbEntity
  8
C-SITE-SBCK
100
AcDbText
 10
223.99541538834973
 20
227.54668723196167
 30
0.0
 40
2.6
  1
SIDE SETBACK 3.0 m [ASSUMED]
  7
NOTES
 11
223.99541538834973
 21
227.54668723196167
 31
0.0
100
AcDbText
  0
TEXT
  5
102
330
17
100
AcDbEntity
  8
C-SITE-SBCK
100
AcDbText
 10
176.991640201593
 20
228.99241133870927
 30
0.0
 40
2.6
  1
REAR SETBACK 4.5 m [ASSUMED]
  7
NOTES
 11
176.991640201593
 21
228.99241133870927
 31
0.0
100
AcDbText
  0
LWPOLYLINE
  5
103
330
17
100
AcDbEntity
  8
C-ROAD-CNTR
  6
CENTER
100
AcDbPolyline
 90
4
 70
0
 10
102.5
 20
170.0
 10
162.5
 20
188.0
 10
196.5
 20
200.0
 10
214.5
 20
210.0
  0
TEXT
  5
104
330
17
100
AcDbEntity
  8
C-ROAD-CNTR
100
AcDbText
 10
199.5
 20
203.0
 30
0.0
 40
2.8
  1
PRIMARY ACCESS - APPLIANCE ROUTE  W 7.0 m  [UNKNOWN]
  7
NOTES
 11
199.5
 21
203.0
 31
0.0
100
AcDbText
  0
LWPOLYLINE
  5
105
330
17
100
AcDbEntity
  8
C-ROAD-CNTR
  6
CENTER
100
AcDbPolyline
 90
4
 70
0
 10
232.5
 20
216.0
 10
264.5
 20
236.0
 10
308.5
 20
258.0
 10
352.5
 20
272.0
  0
TEXT
  5
106
330
17
100
AcDbEntity
  8
C-ROAD-CNTR
100
AcDbText
 10
311.5
 20
261.0
 30
0.0
 40
2.8
  1
SECONDARY ACCESS - CASUALTY EGRESS  W 5.5 m  [UNKNOWN]
  7
NOTES
 11
311.5
 21
261.0
 31
0.0
100
AcDbText
  0
CIRCLE
  5
107
330
17
100
AcDbEntity
  8
A-ANNO-TEXT
100
AcDbCircle
 10
222.5
 20
210.0
 30
0.0
 40
1.6
  0
LINE
  5
108
330
17
100
AcDbEntity
  8
A-ANNO-TEXT
100
AcDbLine
 10
220.23725830020305
 20
207.73725830020305
 30
0.0
 11
224.76274169979695
 21
212.26274169979695
 31
0.0
  0
LINE
  5
109
330
17
100
AcDbEntity
  8
A-ANNO-TEXT
100
AcDbLine
 10
224.76274169979695
 20
207.73725830020305
 30
0.0
 11
220.23725830020305
 21
212.26274169979695
 31
0.0
  0
TEXT
  5
10A
330
17
100
AcDbEntity
  8
A-ANNO-TEXT
100
AcDbText
 10
227.5
 20
204.0
 30
0.0
 40
2.8
  1
POINT OF IMPACT  25.1857908 N, 55.4045442 E  [VERIFIED]
  7
NOTES
 11
227.5
 21
204.0
 31
0.0
100
AcDbText
  0
LWPOLYLINE
  5
10B
330
17
100
AcDbEntity
  8
A-ANNO-TTLB
100
AcDbPolyline
 90
4
 70
1
 10
0.0
 20
0.0
 10
594.0
 20
0.0
 10
594.0
 20
420.0
 10
0.0
 20
420.0
  0
LWPOLYLINE
  5
10C
330
17
100
AcDbEntity
  8
A-ANNO-TTLB
100
AcDbPolyline
 90
4
 70
1
 10
8.0
 20
8.0
 10
586.0
 20
8.0
 10
586.0
 20
412.0
 10
8.0
 20
412.0
  0
LWPOLYLINE
  5
10D
330
17
100
AcDbEntity
  8
A-ANNO-TTLB
100
AcDbPolyline
 90
4
 70
1
 10
435.0
 20
8.0
 10
586.0
 20
8.0
 10
586.0
 20
158.0
 10
435.0
 20
158.0
  0
TEXT
  5
10E
330
17
100
AcDbEntity
  8
A-ANNO-TTLB
100
AcDbText
 10
440.0
 20
144.0
 30
0.0
 40
5.0
  1
IMP-08 WARDA STRIKE RECONSTRUCTION
  7
NOTES
 11
440.0
 21
144.0
 31
0.0
100
AcDbText
  0
TEXT
  5
10F
330
17
100
AcDbEntity
  8
A-ANNO-TTLB
100
AcDbText
 10
440.0
 20
134.0
 30
0.0
 40
4.0
  1
SITE / LAYOUT PLAN - DIMENSIONED
  7
NOTES
 11
440.0
 21
134.0
 31
0.0
100
AcDbText
  0
TEXT
  5
110
330
17
100
AcDbEntity
  8
A-ANNO-TTLB
100
AcDbText
 10
440.0
 20
122.0
 30
0.0
 40
3.2
  1
Jenna Apartments (Warda)
  7
NOTES
 11
440.0
 21
122.0
 31
0.0
100
AcDbText
  0
TEXT
  5
111
330
17
100
AcDbEntity
  8
A-ANNO-TTLB
100
AcDbText
 10
440.0
 20
114.0
 30
0.0
 40
3.2
  1
Al Warqa'a 1, Dubai, UAE
  7
NOTES
 11
440.0
 21
114.0
 31
0.0
100
AcDbText
  0
TEXT
  5
112
330
17
100
AcDbEntity
  8
A-ANNO-TTLB
100
AcDbText
 10
440.0
 20
100.0
 30
0.0
 40
3.2
  1
SCALE  1:1000  (ISO A2 594x420)
  7
NOTES
 11
440.0
 21
100.0
 31
0.0
100
AcDbText
  0
TEXT
  5
113
330
17
100
AcDbEntity
  8
A-ANNO-TTLB
100
AcDbText
 10
440.0
 20
92.0
 30
0.0
 40
3.2
  1
UNITS  METRES ($INSUNITS=6)
  7
NOTES
 11
440.0
 21
92.0
 31
0.0
100
AcDbText
  0
TEXT
  5
114
330
17
100
AcDbEntity
  8
A-ANNO-TTLB
100
AcDbText
 10
440.0
 20
84.0
 30
0.0
 40
3.2
  1
DATUM  WGS84 / EPSG:4326
  7
NOTES
 11
440.0
 21
84.0
 31
0.0
100
AcDbText
  0
TEXT
  5
115
330
17
100
AcDbEntity
  8
A-ANNO-TTLB
100
AcDbText
 10
440.0
 20
76.0
 30
0.0
 40
3.2
  1
GRID BEARING  018.0 deg TRUE
  7
NOTES
 11
440.0
 21
76.0
 31
0.0
100
AcDbText
  0
TEXT
  5
116
330
17
100
AcDbEntity
  8
A-ANNO-TTLB
100
AcDbText
 10
440.0
 20
64.0
 30
0.0
 40
3.0
  1
ISSUED  2026-08-08T11:57:44Z
  7
NOTES
 11
440.0
 21
64.0
 31
0.0
100
AcDbText
  0
TEXT
  5
117
330
17
100
AcDbEntity
  8
A-ANNO-TTLB
100
AcDbText
 10
440.0
 20
56.0
 30
0.0
 40
3.0
  1
DRAWN BY  automated reconstruction pipeline
  7
NOTES
 11
440.0
 21
56.0
 31
0.0
100
AcDbText
  0
TEXT
  5
118
330
17
100
AcDbEntity
  8
A-ANNO-TTLB
100
AcDbText
 10
440.0
 20
48.0
 30
0.0
 40
3.2
  1
DRG No.  IMP-08-CAD-001   REV  A
  7
NOTES
 11
440.0
 21
48.0
 31
0.0
100
AcDbText
  0
LINE
  5
119
330
17
100
AcDbEntity
  8
A-ANNO-TTLB
100
AcDbLine
 10
435.0
 20
130.0
 30
0.0
 11
586.0
 21
130.0
 31
0.0
  0
LINE
  5
11A
330
17
100
AcDbEntity
  8
A-ANNO-TTLB
100
AcDbLine
 10
435.0
 20
108.0
 30
0.0
 11
586.0
 21
108.0
 31
0.0
  0
LINE
  5
11B
330
17
100
AcDbEntity
  8
A-ANNO-TTLB
100
AcDbLine
 10
435.0
 20
70.0
 30
0.0
 11
586.0
 21
70.0
 31
0.0
  0
LINE
  5
11C
330
17
100
AcDbEntity
  8
A-ANNO-TTLB
100
AcDbLine
 10
435.0
 20
42.0
 30
0.0
 11
586.0
 21
42.0
 31
0.0
  0
MTEXT
  5
11D
330
17
100
AcDbEntity
  8
G-ANNO-NPLT
100
AcDbMText
 10
440.0
 20
36.0
 30
0.0
 40
2.7
 41
141.0
 71
1
  3
MODELLED RECONSTRUCTION - NOT CONFIRMED INTELLIGENCE.\PDimensions tagged [ASSUMED] or [UNKNOWN] are analytic\Pestimates, NOT survey measurements. Only the impact\Pcoordinate is [VERIFIED] (geocoded address point).\PNot for engineering, structural or 
  1
safety sign-off.
  7
NOTES
  0
LWPOLYLINE
  5
11E
330
17
100
AcDbEntity
  8
A-ANNO-NORT
100
AcDbPolyline
 90
4
 70
1
 10
470.0
 20
346.0
 10
465.0
 20
322.0
 10
470.0
 20
327.0
 10
475.0
 20
322.0
  0
CIRCLE
  5
11F
330
17
100
AcDbEntity
  8
A-ANNO-NORT
100
AcDbCircle
 10
470.0
 20
334.0
 30
0.0
 40
20.0
  0
TEXT
  5
120
330
17
100
AcDbEntity
  8
A-ANNO-NORT
100
AcDbText
 10
470.0
 20
352.0
 30
0.0
 40
5.0
  1
N
  7
NOTES
 72
1
 11
470.0
 21
352.0
 31
0.0
100
AcDbText
 73
2
  0
TEXT
  5
121
330
17
100
AcDbEntity
  8
A-ANNO-NORT
100
AcDbText
 10
470.0
 20
314.0
 30
0.0
 40
2.8
  1
TRUE NORTH
  7
NOTES
 72
1
 11
470.0
 21
314.0
 31
0.0
100
AcDbText
 73
2
  0
HATCH
  5
122
330
17
100
AcDbEntity
  8
G-ANNO-SCLE
 62
7
100
AcDbHatch
 10
0.0
 20
0.0
 30
0.0
210
0.0
220
0.0
230
1.0
  2
SOLID
 70
1
 71
0
 91
1
 92
3
 72
0
 73
1
 93
4
 10
435.0
 20
190.0
 10
455.0
 20
190.0
 10
455.0
 20
194.0
 10
435.0
 20
194.0
 97
0
 75
1
 76
1
 98
0
  0
LWPOLYLINE
  5
123
330
17
100
AcDbEntity
  8
G-ANNO-SCLE
100
AcDbPolyline
 90
4
 70
1
 10
435.0
 20
190.0
 10
455.0
 20
190.0
 10
455.0
 20
194.0
 10
435.0
 20
194.0
  0
TEXT
  5
124
330
17
100
AcDbEntity
  8
G-ANNO-SCLE
100
AcDbText
 10
435.0
 20
184.0
 30
0.0
 40
2.8
  1
0
  7
NOTES
 72
1
 11
435.0
 21
184.0
 31
0.0
100
AcDbText
 73
2
  0
LWPOLYLINE
  5
125
330
17
100
AcDbEntity
  8
G-ANNO-SCLE
100
AcDbPolyline
 90
4
 70
1
 10
455.0
 20
190.0
 10
475.0
 20
190.0
 10
475.0
 20
194.0
 10
455.0
 20
194.0
  0
TEXT
  5
126
330
17
100
AcDbEntity
  8
G-ANNO-SCLE
100
AcDbText
 10
455.0
 20
184.0
 30
0.0
 40
2.8
  1
20
  7
NOTES
 72
1
 11
455.0
 21
184.0
 31
0.0
100
AcDbText
 73
2
  0
HATCH
  5
127
330
17
100
AcDbEntity
  8
G-ANNO-SCLE
 62
7
100
AcDbHatch
 10
0.0
 20
0.0
 30
0.0
210
0.0
220
0.0
230
1.0
  2
SOLID
 70
1
 71
0
 91
1
 92
3
 72
0
 73
1
 93
4
 10
475.0
 20
190.0
 10
495.0
 20
190.0
 10
495.0
 20
194.0
 10
475.0
 20
194.0
 97
0
 75
1
 76
1
 98
0
  0
LWPOLYLINE
  5
128
330
17
100
AcDbEntity
  8
G-ANNO-SCLE
100
AcDbPolyline
 90
4
 70
1
 10
475.0
 20
190.0
 10
495.0
 20
190.0
 10
495.0
 20
194.0
 10
475.0
 20
194.0
  0
TEXT
  5
129
330
17
100
AcDbEntity
  8
G-ANNO-SCLE
100
AcDbText
 10
475.0
 20
184.0
 30
0.0
 40
2.8
  1
40
  7
NOTES
 72
1
 11
475.0
 21
184.0
 31
0.0
100
AcDbText
 73
2
  0
LWPOLYLINE
  5
12A
330
17
100
AcDbEntity
  8
G-ANNO-SCLE
100
AcDbPolyline
 90
4
 70
1
 10
495.0
 20
190.0
 10
515.0
 20
190.0
 10
515.0
 20
194.0
 10
495.0
 20
194.0
  0
TEXT
  5
12B
330
17
100
AcDbEntity
  8
G-ANNO-SCLE
100
AcDbText
 10
495.0
 20
184.0
 30
0.0
 40
2.8
  1
60
  7
NOTES
 72
1
 11
495.0
 21
184.0
 31
0.0
100
AcDbText
 73
2
  0
HATCH
  5
12C
330
17
100
AcDbEntity
  8
G-ANNO-SCLE
 62
7
100
AcDbHatch
 10
0.0
 20
0.0
 30
0.0
210
0.0
220
0.0
230
1.0
  2
SOLID
 70
1
 71
0
 91
1
 92
3
 72
0
 73
1
 93
4
 10
515.0
 20
190.0
 10
535.0
 20
190.0
 10
535.0
 20
194.0
 10
515.0
 20
194.0
 97
0
 75
1
 76
1
 98
0
  0
LWPOLYLINE
  5
12D
330
17
100
AcDbEntity
  8
G-ANNO-SCLE
100
AcDbPolyline
 90
4
 70
1
 10
515.0
 20
190.0
 10
535.0
 20
190.0
 10
535.0
 20
194.0
 10
515.0
 20
194.0
  0
TEXT
  5
12E
330
17
100
AcDbEntity
  8
G-ANNO-SCLE
100
AcDbText
 10
515.0
 20
184.0
 30
0.0
 40
2.8
  1
80
  7
NOTES
 72
1
 11
515.0
 21
184.0
 31
0.0
100
AcDbText
 73
2
  0
TEXT
  5
12F
330
17
100
AcDbEntity
  8
G-ANNO-SCLE
100
AcDbText
 10
535.0
 20
184.0
 30
0.0
 40
2.8
  1
100
  7
NOTES
 72
1
 11
535.0
 21
184.0
 31
0.0
100
AcDbText
 73
2
  0
TEXT
  5
130
330
17
100
AcDbEntity
  8
G-ANNO-SCLE
100
AcDbText
 10
435.0
 20
198.0
 30
0.0
 40
3.0
  1
METRES        SCALE 1:1000
  7
NOTES
 11
435.0
 21
198.0
 31
0.0
100
AcDbText
  0
TEXT
  5
131
330
17
100
AcDbEntity
  8
A-ANNO-LEGN
100
AcDbText
 10
435.0
 20
172.0
 30
0.0
 40
3.4
  1
LEGEND - CONFIDENCE TIERS
  7
NOTES
 11
435.0
 21
172.0
 31
0.0
100
AcDbText
  0
LINE
  5
132
330
17
100
AcDbEntity
  8
A-ANNO-LEGN
100
AcDbLine
 10
435.0
 20
166.2
 30
0.0
 11
445.0
 21
166.2
 31
0.0
  0
TEXT
  5
133
330
17
100
AcDbEntity
  8
A-ANNO-LEGN
100
AcDbText
 10
448.0
 20
165.0
 30
0.0
 40
2.7
  1
[VERIFIED]  geocoded / measured
  7
NOTES
 11
448.0
 21
165.0
 31
0.0
100
AcDbText
  0
LINE
  5
134
330
17
100
AcDbEntity
  8
C-SITE-STDF-ASSM
100
AcDbLine
 10
435.0
 20
160.2
 30
0.0
 11
445.0
 21
160.2
 31
0.0
  0
TEXT
  5
135
330
17
100
AcDbEntity
  8
A-ANNO-LEGN
100
AcDbText
 10
448.0
 20
159.0
 30
0.0
 40
2.7
  1
[ASSUMED]   analytic estimate
  7
NOTES
 11
448.0
 21
159.0
 31
0.0
100
AcDbText
  0
LINE
  5
136
330
17
100
AcDbEntity
  8
C-SITE-STDF-UNKN
100
AcDbLine
 10
435.0
 20
154.2
 30
0.0
 11
445.0
 21
154.2
 31
0.0
  0
TEXT
  5
137
330
17
100
AcDbEntity
  8
A-ANNO-LEGN
100
AcDbText
 10
448.0
 20
153.0
 30
0.0
 40
2.7
  1
[UNKNOWN]   notional, no evidence
  7
NOTES
 11
448.0
 21
153.0
 31
0.0
100
AcDbText
  0
LINE
  5
138
330
17
100
AcDbEntity
  8
C-SITE-SBCK
100
AcDbLine
 10
435.0
 20
148.2
 30
0.0
 11
445.0
 21
148.2
 31
0.0
  0
TEXT
  5
139
330
17
100
AcDbEntity
  8
A-ANNO-LEGN
100
AcDbText
 10
448.0
 20
147.0
 30
0.0
 40
2.7
  1
---- setback envelope
  7
NOTES
 11
448.0
 21
147.0
 31
0.0
100
AcDbText
  0
LINE
  5
13A
330
17
100
AcDbEntity
  8
C-ROAD-CNTR
100
AcDbLine
 10
435.0
 20
142.2
 30
0.0
 11
445.0
 21
142.2
 31
0.0
  0
TEXT
  5
13B
330
17
100
AcDbEntity
  8
A-ANNO-LEGN
100
AcDbText
 10
448.0
 20
141.0
 30
0.0
 40
2.7
  1
-.-. access route centreline
  7
NOTES
 11
448.0
 21
141.0
 31
0.0
100
AcDbText
  0
VIEWPORT
  5
13C
330
1B
100
AcDbEntity
 67
1
  8
VIEWPORTS
100
AcDbViewport
 10
297.0
 20
210.0
 30
0.0
 40
653.4000000000001
 41
462.00000000000006
 68
1
 69
1
 12
297.0
 22
210.0
 13
0.0
 23
0.0
 14
10.0
 24
10.0
 15
10.0
 25
10.0
 16
0.0
 26
0.0
 36
1.0
 17
0.0
 27
0.0
 37
0.0
 42
50.0
 43
0.0
 44
0.0
 45
462.00000000000006
 50
0.0
 51
0.0
 72
100
 90
557088
  1

281
0
 71
0
 74
0
110
0.0
120
0.0
130
0.0
111
1.0
121
0.0
131
0.0
112
0.0
122
1.0
132
0.0
 79
0
146
0.0
282
0
  0
VIEWPORT
  5
13D
330
1B
100
AcDbEntity
 67
1
  8
VIEWPORTS
100
AcDbViewport
 10
297.0
 20
210.0
 30
0.0
 40
594.0
 41
420.0
 68
1
 69
3
 12
297.0
 22
210.0
 13
0.0
 23
0.0
 14
10.0
 24
10.0
 15
10.0
 25
10.0
 16
0.0
 26
0.0
 36
1.0
 17
0.0
 27
0.0
 37
0.0
 42
50.0
 43
0.0
 44
0.0
 45
420.0
 50
0.0
 51
0.0
 72
100
 90
0
  1

281
0
 71
0
 74
0
110
0.0
120
0.0
130
0.0
111
1.0
121
0.0
131
0.0
112
0.0
122
1.0
132
0.0
 79
0
146
0.0
282
0
  0
ENDSEC
  0
SECTION
  2
OBJECTS
  0
DICTIONARY
  5
A
330
0
100
AcDbDictionary
281
1
  3
ACAD_COLOR
350
B
  3
ACAD_GROUP
350
C
  3
ACAD_LAYOUT
350
D
  3
ACAD_MATERIAL
350
E
  3
ACAD_MLEADERSTYLE
350
F
  3
ACAD_MLINESTYLE
350
10
  3
ACAD_PLOTSETTINGS
350
11
  3
ACAD_PLOTSTYLENAME
350
12
  3
ACAD_SCALELIST
350
14
  3
ACAD_TABLESTYLE
350
15
  3
ACAD_VISUALSTYLE
350
16
  3
EZDXF_META
350
2D
  0
DICTIONARY
  5
B
330
A
100
AcDbDictionary
281
1
  0
DICTIONARY
  5
C
330
A
100
AcDbDictionary
281
1
  0
DICTIONARY
  5
D
330
A
100
AcDbDictionary
281
1
  3
Model
350
1A
  3
Layout1
350
1E
  0
DICTIONARY
  5
E
330
A
100
AcDbDictionary
281
1
  3
ByBlock
350
1F
  3
ByLayer
350
20
  3
Global
350
21
  0
DICTIONARY
  5
F
330
A
100
AcDbDictionary
281
1
  3
Standard
350
2C
  0
DICTIONARY
  5
10
330
A
100
AcDbDictionary
281
1
  3
Standard
350
22
  0
DICTIONARY
  5
11
330
A
100
AcDbDictionary
281
1
  0
ACDBDICTIONARYWDFLT
  5
12
330
A
100
AcDbDictionary
281
1
  3
Normal
350
13
100
AcDbDictionaryWithDefault
340
13
  0
ACDBPLACEHOLDER
  5
13
330
12
  0
DICTIONARY
  5
14
330
A
100
AcDbDictionary
281
1
  0
DICTIONARY
  5
15
330
A
100
AcDbDictionary
281
1
  0
DICTIONARY
  5
16
330
A
100
AcDbDictionary
281
1
  3
2dWireframe
350
5A
  3
Basic
350
5B
  3
Brighten
350
5C
  3
ColorChange
350
5D
  3
Conceptual
350
5E
  3
Dim
350
5F
  3
EdgeColorOff
350
60
  3
Facepattern
350
61
  3
Flat
350
62
  3
FlatWithEdges
350
63
  3
Gouraud
350
64
  3
GouraudWithEdges
350
65
  3
Hidden
350
66
  3
JitterOff
350
67
  3
Linepattern
350
68
  3
Modeling
350
69
  3
OverhangOff
350
6A
  3
Realistic
350
6B
  3
Shaded
350
6C
  3
Shaded with edges
350
6D
  3
Shades of Gray
350
6E
  3
Sketchy
350
6F
  3
Thicken
350
70
  3
Wireframe
350
71
  3
X-Ray
350
72
  0
LAYOUT
  5
1A
330
D
100
AcDbPlotSettings
  1

  4
A3
  6

 40
7.5
 41
20.0
 42
7.5
 43
20.0
 44
420.0
 45
297.0
 46
0.0
 47
0.0
 48
0.0
 49
0.0
140
0.0
141
0.0
142
1.0
143
1.0
 70
1024
 72
1
 73
0
 74
5
  7

 75
16
 76
0
 77
2
 78
300
147
1.0
148
0.0
149
0.0
100
AcDbLayout
  1
Model
 70
1
 71
0
 10
0.0
 20
0.0
 11
420.0
 21
297.0
 12
0.0
 22
0.0
 32
0.0
 14
1e+20
 24
1e+20
 34
1e+20
 15
-1e+20
 25
-1e+20
 35
-1e+20
146
0.0
 13
0.0
 23
0.0
 33
0.0
 16
1.0
 26
0.0
 36
0.0
 17
0.0
 27
1.0
 37
0.0
 76
1
330
17
  0
LAYOUT
  5
1E
330
D
100
AcDbPlotSettings
  1

  2
DWG to PDF.pc3
  4
ezdxf_(594.00_x_420.00_MM)
  6

 40
0.0
 41
0.0
 42
0.0
 43
0.0
 44
594.0
 45
420.0
 46
0.0
 47
0.0
 48
0.0
 49
0.0
140
0.0
141
0.0
142
1.0
143
1.0
 70
672
 72
1
 73
0
 74
5
  7

 75
16
 76
0
 77
2
 78
300
147
1.0
148
0.0
149
0.0
100
AcDbLayout
  1
Layout1
 70
1
 71
1
 10
-0.0
 20
-0.0
 11
594.0
 21
420.0
 12
0.0
 22
0.0
 32
0.0
 14
1e+20
 24
1e+20
 34
1e+20
 15
-1e+20
 25
-1e+20
 35
-1e+20
146
0.0
 13
0.0
 23
0.0
 33
0.0
 16
1.0
 26
0.0
 36
0.0
 17
0.0
 27
1.0
 37
0.0
 76
1
330
1B
331
13C
  0
MATERIAL
  5
1F
102
{ACAD_REACTORS
330
E
102
}
330
E
100
AcDbMaterial
  1
ByBlock
  2

 70
0
 40
1.0
 71
1
 41
1.0
 91
-1023410177
 42
1.0
 72
1
  3

 73
1
 74
1
 75
1
 44
0.5
 73
0
 45
1.0
 46
1.0
 77
1
  4

 78
1
 79
1
170
1
 48
1.0
171
1
  6

172
1
173
1
174
1
140
1.0
141
1.0
175
1
  7

176
1
177
1
178
1
143
1.0
179
1
  8

270
1
271
1
272
1
145
1.0
146
1.0
273
1
  9

274
1
275
1
276
1
 42
1.0
 72
1
  3

 73
1
 74
1
 75
1
 94
63
  0
MATERIAL
  5
20
102
{ACAD_REACTORS
330
E
102
}
330
E
100
AcDbMaterial
  1
ByLayer
  2

 70
0
 40
1.0
 71
1
 41
1.0
 91
-1023410177
 42
1.0
 72
1
  3

 73
1
 74
1
 75
1
 44
0.5
 73
0
 45
1.0
 46
1.0
 77
1
  4

 78
1
 79
1
170
1
 48
1.0
171
1
  6

172
1
173
1
174
1
140
1.0
141
1.0
175
1
  7

176
1
177
1
178
1
143
1.0
179
1
  8

270
1
271
1
272
1
145
1.0
146
1.0
273
1
  9

274
1
275
1
276
1
 42
1.0
 72
1
  3

 73
1
 74
1
 75
1
 94
63
  0
MATERIAL
  5
21
102
{ACAD_REACTORS
330
E
102
}
330
E
100
AcDbMaterial
  1
Global
  2

 70
0
 40
1.0
 71
1
 41
1.0
 91
-1023410177
 42
1.0
 72
1
  3

 73
1
 74
1
 75
1
 44
0.5
 73
0
 45
1.0
 46
1.0
 77
1
  4

 78
1
 79
1
170
1
 48
1.0
171
1
  6

172
1
173
1
174
1
140
1.0
141
1.0
175
1
  7

176
1
177
1
178
1
143
1.0
179
1
  8

270
1
271
1
272
1
145
1.0
146
1.0
273
1
  9

274
1
275
1
276
1
 42
1.0
 72
1
  3

 73
1
 74
1
 75
1
 94
63
  0
MLINESTYLE
  5
22
102
{ACAD_REACTORS
330
10
102
}
330
10
100
AcDbMlineStyle
  2
Standard
 70
0
  3

 62
256
 51
90.0
 52
90.0
 71
2
 49
0.5
 62
256
  6
BYLAYER
 49
-0.5
 62
256
  6
BYLAYER
  0
MLEADERSTYLE
  5
2C
102
{ACAD_REACTORS
330
F
102
}
330
F
100
AcDbMLeaderStyle
179
2
170
2
171
1
172
0
 90
2
 40
0.0
 41
0.0
173
1
 91
-1056964608
 92
-2
290
1
 42
2.0
291
1
 43
8.0
  3
Standard
 44
4.0
300

342
29
174
1
175
1
176
0
178
1
 93
-1056964608
 45
4.0
292
0
297
0
 46
4.0
 94
-1056964608
 47
1.0
 49
1.0
140
1.0
294
1
141
0.0
177
0
142
1.0
295
0
296
0
143
3.75
271
0
272
9
273
9
  0
DICTIONARY
  5
2D
330
A
100
AcDbDictionary
280
1
281
1
  3
CREATED_BY_EZDXF
350
2E
  3
WRITTEN_BY_EZDXF
350
140
  0
DICTIONARYVAR
  5
2E
330
2D
100
DictionaryVariables
280
0
  1
1.4.4 @ 2026-08-08T11:57:44.917286+00:00
  0
VISUALSTYLE
  5
5A
102
{ACAD_REACTORS
330
16
102
}
330
16
100
AcDbVisualStyle
  2
2dWireframe
 70
4
 90
0
 40
0.6
 62
7
290
0
291
0
  0
VISUALSTYLE
  5
5B
102
{ACAD_REACTORS
330
16
102
}
330
16
100
AcDbVisualStyle
  2
Basic
 70
7
 90
1
 40
0.6
 62
7
290
0
291
1
  0
VISUALSTYLE
  5
5C
102
{ACAD_REACTORS
330
16
102
}
330
16
100
AcDbVisualStyle
  2
Brighten
 70
12
 90
2
 40
0.6
 62
7
290
0
291
1
  0
VISUALSTYLE
  5
5D
102
{ACAD_REACTORS
330
16
102
}
330
16
100
AcDbVisualStyle
  2
ColorChange
 70
16
 90
2
 40
0.6
 62
8
290
0
291
1
  0
VISUALSTYLE
  5
5E
102
{ACAD_REACTORS
330
16
102
}
330
16
100
AcDbVisualStyle
  2
Conceptual
 70
9
 90
3
 40
0.6
 62
7
290
0
291
0
  0
VISUALSTYLE
  5
5F
102
{ACAD_REACTORS
330
16
102
}
330
16
100
AcDbVisualStyle
  2
Dim
 70
11
 90
2
 40
0.6
 62
7
290
0
291
1
  0
VISUALSTYLE
  5
60
102
{ACAD_REACTORS
330
16
102
}
330
16
100
AcDbVisualStyle
  2
EdgeColorOff
 70
22
 90
2
 40
0.6
 62
7
290
0
291
1
  0
VISUALSTYLE
  5
61
102
{ACAD_REACTORS
330
16
102
}
330
16
100
AcDbVisualStyle
  2
Facepattern
 70
15
 90
2
 40
0.6
 62
7
290
0
291
1
  0
VISUALSTYLE
  5
62
102
{ACAD_REACTORS
330
16
102
}
330
16
100
AcDbVisualStyle
  2
Flat
 70
0
 90
2
 40
0.6
 62
7
290
0
291
1
  0
VISUALSTYLE
  5
63
102
{ACAD_REACTORS
330
16
102
}
330
16
100
AcDbVisualStyle
  2
FlatWithEdges
 70
1
 90
2
 40
0.6
 62
7
290
0
291
1
  0
VISUALSTYLE
  5
64
102
{ACAD_REACTORS
330
16
102
}
330
16
100
AcDbVisualStyle
  2
Gouraud
 70
2
 90
2
 40
0.6
 62
7
290
0
291
1
  0
VISUALSTYLE
  5
65
102
{ACAD_REACTORS
330
16
102
}
330
16
100
AcDbVisualStyle
  2
GouraudWithEdges
 70
3
 90
2
 40
0.6
 62
7
290
0
291
1
  0
VISUALSTYLE
  5
66
102
{ACAD_REACTORS
330
16
102
}
330
16
100
AcDbVisualStyle
  2
Hidden
 70
6
 90
1
 40
0.6
 62
7
290
0
291
0
  0
VISUALSTYLE
  5
67
102
{ACAD_REACTORS
330
16
102
}
330
16
100
AcDbVisualStyle
  2
JitterOff
 70
20
 90
2
 40
0.6
 62
7
290
0
291
1
  0
VISUALSTYLE
  5
68
102
{ACAD_REACTORS
330
16
102
}
330
16
100
AcDbVisualStyle
  2
Linepattern
 70
14
 90
2
 40
0.6
 62
7
290
0
291
1
  0
VISUALSTYLE
  5
69
102
{ACAD_REACTORS
330
16
102
}
330
16
100
AcDbVisualStyle
  2
Modeling
 70
10
 90
2
 40
0.6
 62
7
290
0
291
0
  0
VISUALSTYLE
  5
6A
102
{ACAD_REACTORS
330
16
102
}
330
16
100
AcDbVisualStyle
  2
OverhangOff
 70
21
 90
2
 40
0.6
 62
7
290
0
291
1
  0
VISUALSTYLE
  5
6B
102
{ACAD_REACTORS
330
16
102
}
330
16
100
AcDbVisualStyle
  2
Realistic
 70
8
 90
2
 40
0.6
 62
7
290
0
291
0
  0
VISUALSTYLE
  5
6C
102
{ACAD_REACTORS
330
16
102
}
330
16
100
AcDbVisualStyle
  2
Shaded
 70
27
 90
2
 40
0.6
 62
7
290
0
291
0
  0
VISUALSTYLE
  5
6D
102
{ACAD_REACTORS
330
16
102
}
330
16
100
AcDbVisualStyle
  2
Shaded with edges
 70
26
 90
2
 40
0.6
 62
7
290
0
291
0
  0
VISUALSTYLE
  5
6E
102
{ACAD_REACTORS
330
16
102
}
330
16
100
AcDbVisualStyle
  2
Shades of Gray
 70
23
 90
2
 40
0.6
 62
7
290
0
291
0
  0
VISUALSTYLE
  5
6F
102
{ACAD_REACTORS
330
16
102
}
330
16
100
AcDbVisualStyle
  2
Sketchy
 70
24
 90
1
 40
0.6
 62
7
290
0
291
0
  0
VISUALSTYLE
  5
70
102
{ACAD_REACTORS
330
16
102
}
330
16
100
AcDbVisualStyle
  2
Thicken
 70
13
 90
2
 40
0.6
 62
7
290
0
291
1
  0
VISUALSTYLE
  5
71
102
{ACAD_REACTORS
330
16
102
}
330
16
100
AcDbVisualStyle
  2
Wireframe
 70
5
 90
0
 40
0.6
 62
7
290
0
291
0
  0
VISUALSTYLE
  5
72
102
{ACAD_REACTORS
330
16
102
}
330
16
100
AcDbVisualStyle
  2
X-Ray
 70
25
 90
2
 40
0.5
 62
7
290
0
291
0
  0
DICTIONARYVAR
  5
140
330
2D
100
DictionaryVariables
280
0
  1
1.4.4 @ 2026-08-08T11:57:44.928544+00:00
  0
ENDSEC
  0
EOF
